<?xml version="1.0" encoding="UTF-8"?>
<svg version="1.1" xmlns="http://www.w3.org/2000/svg" width="494" height="505">
<path d="M0 0 C1.25963011 0.00138269 1.25963011 0.00138269 2.5447073 0.00279331 C3.50529552 0.00141865 4.46588375 0.00004398 5.45558071 -0.00137234 C6.51796963 0.00222294 7.58035854 0.00581821 8.67494106 0.00952244 C10.34302067 0.0093034 10.34302067 0.0093034 12.04479885 0.00907993 C15.74046143 0.00977962 19.43607434 0.01757463 23.13172817 0.02539158 C25.68620686 0.02725556 28.24068589 0.02867956 30.79516506 0.0296793 C36.84418902 0.03311439 42.89319147 0.04100518 48.9422068 0.05102879 C55.82722346 0.062191 62.71224096 0.06770065 69.59726441 0.07272422 C83.76371022 0.08318783 97.93014009 0.1007866 112.09657192 0.12304783 C114.22430508 5.74834396 115.46895478 10.5453502 115.42127895 16.63061619 C115.42011074 17.32122135 115.41894253 18.01182652 115.41773891 18.72335911 C115.41064179 20.97019361 115.3825226 23.21623136 115.35438442 25.46289158 C115.34623529 27.03706782 115.33957676 28.61125241 115.33433437 30.18544102 C115.31731938 34.30290929 115.28311203 38.42004093 115.244277 42.53735447 C115.18476327 49.15105814 115.15124914 55.76493698 115.11851025 62.37881756 C115.10454292 64.68670158 115.08296474 66.99441945 115.06022549 69.30223179 C115.05020737 70.70856712 115.04034175 72.11490354 115.03065395 73.52124119 C115.01938473 74.75096149 115.0081155 75.9806818 114.99650478 77.24766636 C114.89508574 80.0666043 114.89508574 80.0666043 116.09657192 82.12304783 C116.66637249 89.07461478 116.66637249 89.07461478 114.53407192 92.99804783 C108.68204555 98.09981441 100.99671986 97.42966223 93.64344692 97.46679783 C92.54744167 97.48142063 91.45143642 97.49604343 90.32221889 97.51110935 C86.8303734 97.55742639 83.33858198 97.5917099 79.84657192 97.62304783 C75.25782921 97.66447973 70.66946655 97.71829123 66.08094692 97.77929783 C65.0441177 97.78457493 64.00728848 97.78985203 62.93904018 97.79528904 C54.38981128 97.91024304 45.12202571 98.2169928 37.65907192 102.81054783 C36.87661098 103.26816502 36.09415005 103.7257822 35.28797817 104.19726658 C29.65724111 109.14549006 28.4005974 114.91868565 27.85829067 122.05273533 C27.78301647 122.91422184 27.70774227 123.77570835 27.63018703 124.66330051 C26.85542538 134.48900327 26.82985845 144.32483848 26.89076138 154.17529392 C26.90942738 157.3076981 26.91126746 160.43981169 26.91102505 163.57226658 C26.91592759 165.57096707 26.9217503 167.56966557 26.92860317 169.56836033 C26.93027241 170.96805561 26.93027241 170.96805561 26.93197536 172.39602757 C26.93835522 173.25227726 26.94473507 174.10852695 26.95130825 174.99072361 C26.95512005 175.74314335 26.95893185 176.49556309 26.96285915 177.27078342 C26.98498638 179.21792075 26.98498638 179.21792075 28.09657192 181.12304783 C29.44721737 181.11971691 29.44721737 181.11971691 30.82514858 181.1163187 C39.35677281 181.09618966 47.88838893 181.08100981 56.42003155 181.07123566 C60.80506061 181.06604158 65.19006987 181.0590079 69.57508755 181.04760838 C73.81558581 181.03665492 78.05606516 181.03074489 82.2965765 181.02817059 C83.90549167 181.0263386 85.51440594 181.02276177 87.12331295 181.01731777 C107.78457204 180.95025772 107.78457204 180.95025772 114.09657192 182.12304783 C116.86496862 184.89144453 116.39623961 186.48913443 116.40907192 190.37304783 C116.36441861 197.47550078 115.48509586 204.3577308 114.44984341 211.37451267 C113.04355974 221.05720124 111.99662101 230.76917886 110.97157192 240.49804783 C110.88548672 241.3009827 110.79940151 242.10391758 110.71070766 242.93118382 C109.67778588 252.58185344 108.84695668 262.18792904 108.44471645 271.88720798 C108.12284162 274.87888333 107.76418747 276.65253386 106.09657192 279.12304783 C98.37262826 282.98501966 86.98560696 281.42608949 78.46375942 281.65820408 C76.97588628 281.70130702 75.4880222 281.74472366 74.00016689 281.78843784 C70.11728612 281.90168874 66.2342985 282.01072684 62.35127163 282.1188364 C58.3756722 282.23028656 54.40019071 282.34579186 50.42469692 282.46093845 C42.64876404 282.68557201 34.87271356 282.90574749 27.09657192 283.12304783 C27.09298939 284.73044677 27.09298939 284.73044677 27.08933449 286.37031841 C27.03056194 312.43455158 26.95469301 338.49869214 26.86085701 364.5628233 C26.81587533 377.16719954 26.7764661 389.77154737 26.75013638 402.37597752 C26.72717556 413.36091503 26.69379893 424.34576284 26.64787036 435.33062923 C26.62391238 441.14800628 26.60520045 446.96529434 26.59895802 452.78271961 C26.59291887 458.2574171 26.57296119 463.73188681 26.54229641 469.20650005 C26.53349744 471.21643525 26.52979744 473.22640019 26.53156376 475.23635387 C26.53321379 477.98019078 26.51654021 480.72333107 26.49529934 483.46707249 C26.5025707 484.6606692 26.5025707 484.6606692 26.50998896 485.87837899 C26.43068274 492.0841047 24.77915473 496.07666333 20.78407192 500.93554783 C16.29043795 504.59315688 11.24986013 504.24785363 5.63221645 504.23657322 C4.37136227 504.23649769 3.11050808 504.23642216 1.81144619 504.23634434 C0.45075852 504.23123892 -0.90992873 504.22602294 -2.27061558 504.22070408 C-3.67451521 504.21883695 -5.0784155 504.21741444 -6.48231602 504.21641636 C-10.1615033 504.21261441 -13.84065056 504.20280415 -17.51982212 504.19171238 C-21.28049777 504.18144814 -25.04117994 504.17690803 -28.80186558 504.17187595 C-36.16907125 504.16117962 -43.53624403 504.14413135 -50.90342808 504.12304783 C-51.23342808 503.46304783 -51.56342808 502.80304783 -51.90342808 502.12304783 C-53.8106166 501.43809518 -53.8106166 501.43809518 -56.13780308 500.97461033 C-57.01637974 500.77601414 -57.8949564 500.57741795 -58.80015659 500.37280369 C-59.74173618 500.16663425 -60.68331577 499.96046482 -61.65342808 499.74804783 C-74.28501336 496.84771517 -74.28501336 496.84771517 -80.46592808 495.06054783 C-81.92192417 494.64095798 -81.92192417 494.64095798 -83.40733433 494.21289158 C-86.93466182 492.67279084 -89.18179452 490.56631495 -90.90342808 487.12304783 C-91.06356686 484.42805002 -91.16219328 481.75663895 -91.21763706 479.05883884 C-91.23829542 478.19688089 -91.25895378 477.33492294 -91.28023815 476.44684505 C-91.34765122 473.48615204 -91.40568634 470.5253779 -91.46202183 467.56445408 C-91.48307924 466.51501684 -91.50413666 465.46557961 -91.52583218 464.38434124 C-92.17009088 431.29912275 -92.017867 398.20392686 -91.97545564 365.11413157 C-91.96402826 356.03709059 -91.95871766 346.96004861 -91.95375168 337.88300216 C-91.94345461 319.29634255 -91.92600678 300.70969639 -91.90342808 282.12304783 C-92.47056365 282.12400928 -93.03769922 282.12497072 -93.62202072 282.1259613 C-96.22843672 282.12981255 -98.83485211 282.13217713 -101.44126987 282.13452244 C-102.33321804 282.13606075 -103.22516621 282.13759907 -104.1441431 282.139184 C-111.34439795 282.14403321 -118.52132915 281.98402345 -125.71592808 281.68554783 C-127.35271519 281.62657322 -127.35271519 281.62657322 -129.0225687 281.5664072 C-143.72754872 280.98535936 -143.72754872 280.98535936 -146.77842808 278.74804783 C-149.44641259 274.89429242 -149.05138267 270.75344393 -149.04869175 266.27441502 C-149.05205036 265.47567463 -149.05540897 264.67693424 -149.05886936 263.8539896 C-149.06837978 261.20928491 -149.07032274 258.56464356 -149.07139683 255.91992283 C-149.07461011 254.08009916 -149.07797424 252.24027574 -149.08148289 250.40045261 C-149.08747493 246.54023745 -149.08932279 242.68004466 -149.08873081 238.81982517 C-149.08862936 233.88252379 -149.10226356 228.94536677 -149.11950302 224.00809956 C-149.13064496 220.20588623 -149.13264932 216.40370751 -149.13212109 212.60147953 C-149.13329858 210.78188932 -149.13770742 208.96229814 -149.14545345 207.14272404 C-149.15529452 204.59146758 -149.15235877 202.04052063 -149.146348 199.48925877 C-149.15196751 198.74302753 -149.15758701 197.9967963 -149.16337681 197.227952 C-149.13547014 192.54636513 -148.56156123 188.51069404 -146.90342808 184.12304783 C-140.53626896 179.87827508 -131.21539156 180.95073692 -123.73936558 180.80664158 C-122.36223896 180.77546993 -122.36223896 180.77546993 -120.9572916 180.74366856 C-118.06440292 180.67900827 -115.17143444 180.61968237 -112.27842808 180.56054783 C-110.3005557 180.51728288 -108.32269098 180.47366625 -106.34483433 180.42968845 C-101.53111111 180.32341439 -96.71730879 180.22191964 -91.90342808 180.12304783 C-91.89756184 179.26401356 -91.89169559 178.40497929 -91.88565159 177.51991367 C-91.82700197 169.30120879 -91.75453666 161.08275517 -91.66771317 152.86429787 C-91.62356535 148.64221874 -91.58419919 144.42022397 -91.55699253 140.197999 C-91.27878893 98.33335891 -89.19528623 58.90358645 -59.21592808 26.93554783 C-47.90904855 16.12103631 -35.84131262 10.27860748 -20.90342808 6.12304783 C-20.06618198 5.88714939 -19.22893589 5.65125095 -18.3663187 5.40820408 C-15.07390101 4.4832272 -11.78169614 3.56048032 -8.47642612 2.682374 C-5.57960075 1.90986551 -2.77310118 0.17926818 0 0 Z " fill="#FEFEFE" transform="translate(262.90342807769775,0.8769521713256836)"/>
</svg>
