<?xml version="1.0" encoding="UTF-8"?>
<svg version="1.1" xmlns="http://www.w3.org/2000/svg" width="63" height="64">
<path d="M0 0 C20.46 0 40.92 0 62 0 C63 5 63 5 61.62109375 7.1484375 C60.90050781 7.88320312 60.17992187 8.61796875 59.4375 9.375 C58.62152344 10.22835938 57.80554687 11.08171875 56.96484375 11.9609375 C56.50062012 12.43499023 56.03639648 12.90904297 55.55810547 13.39746094 C53.13920471 15.8853432 50.77461813 18.42334293 48.40649414 20.95947266 C47.14536837 22.30925998 45.88028342 23.65536009 44.61108398 24.99755859 C44.02786377 25.61711426 43.44464355 26.23666992 42.84375 26.875 C42.31974609 27.42929687 41.79574219 27.98359375 41.25585938 28.5546875 C38.93980548 31.22013055 38.91950908 32.97746143 39.03515625 36.40234375 C39.21678013 52.77380098 39.21678013 52.77380098 34.50170898 58.40649414 C32.44768236 60.50423121 30.42801748 62.34382833 28 64 C27.01 64 26.02 64 25 64 C23.54647877 61.09295754 23.90898974 58.54832223 23.9296875 55.3046875 C23.92109504 53.93488318 23.91061605 52.56508964 23.8984375 51.1953125 C23.88182209 49.04215021 23.87480532 46.89138342 23.90039062 44.73828125 C24.21843721 34.96574296 24.21843721 34.96574296 19.9375 26.53515625 C18.64610716 25.33367676 17.33271676 24.15547154 16 23 C14.67656654 21.59728554 13.36683541 20.18153097 12.0703125 18.75390625 C10.75659104 17.3554706 9.44148302 15.95833624 8.125 14.5625 C7.44953125 13.84384766 6.7740625 13.12519531 6.078125 12.38476562 C3.0714702 9.16113226 3.0714702 9.16113226 0 6 C0 4.02 0 2.04 0 0 Z " fill="#FEFEFE" transform="translate(0,0)"/>
</svg>
