<?xml version="1.0" encoding="UTF-8"?>
<svg version="1.1" xmlns="http://www.w3.org/2000/svg" width="486" height="513">
<path d="M0 0 C1.84838507 0.03716325 3.6968224 0.07183103 5.54530597 0.10372114 C20.11513326 0.36505689 33.94494105 1.43909522 47.95261848 5.81210971 C48.93722053 6.11705356 49.92182258 6.4219974 50.93626106 6.73618197 C85.7919609 17.93259945 114.70406105 45.20341223 132.57761848 76.68710971 C133.03652473 77.49148471 133.49543098 78.29585971 133.96824348 79.12460971 C136.65380245 84.15578348 138.69340579 89.39951043 140.64011848 94.74960971 C140.87359993 95.37899447 141.10708137 96.00837924 141.34763801 96.65683627 C146.85328662 112.35118693 148.19012738 127.0884944 148.22214973 143.61801791 C148.24071087 145.8773691 148.26081583 148.13670805 148.28233039 150.39603305 C148.33439585 156.49022041 148.36052437 162.58423238 148.37837303 168.67860699 C148.39017462 172.50609694 148.40660839 176.3335411 148.42438972 180.16100764 C148.47276171 190.8202205 148.51430316 201.47937671 148.52789009 212.13869071 C148.52920748 213.15754374 148.52920748 213.15754374 148.53055149 214.19697965 C148.53186116 215.21787746 148.53186116 215.21787746 148.53319728 216.25939947 C148.53497096 217.63789079 148.53675721 219.01638209 148.53855598 220.39487338 C148.5394417 221.07861115 148.54032742 221.76234892 148.54123998 222.46680602 C148.55696512 233.49642469 148.62659767 244.52497562 148.71999407 255.55418358 C148.81576727 266.95908695 148.86371517 278.36321978 148.86936176 289.76857513 C148.87350503 296.13947799 148.89605347 302.5088733 148.96864021 308.87939525 C149.38843895 347.97572457 146.37656036 384.95765636 119.57761848 415.68710971 C118.89054817 416.48375033 118.20347785 417.28039096 117.49558723 418.10117221 C108.40804482 428.41676089 99.12873515 438.12442642 87.57761848 445.68710971 C85.95146614 446.77959018 85.95146614 446.77959018 84.29246223 447.89414096 C51.41981144 469.23652605 13.83687525 468.00007177 -23.79773414 467.92282915 C-29.06049874 467.91392992 -34.32326145 467.91580836 -39.58603203 467.91618991 C-48.41390274 467.91525853 -57.24173871 467.90664556 -66.06959832 467.89292026 C-76.22619389 467.87718584 -86.38275156 467.87192302 -96.53935844 467.87265581 C-107.43011396 467.87333501 -118.32085521 467.86637564 -129.21160638 467.85720921 C-132.31718116 467.85509424 -135.42275358 467.85437029 -138.52832901 467.85397029 C-143.43447066 467.85295409 -148.34058141 467.84675529 -153.2467128 467.83680415 C-155.03029992 467.83392292 -156.81389059 467.83264469 -158.59747994 467.83323169 C-167.65902853 467.83508296 -176.69138632 467.69682946 -185.74215996 467.23003268 C-186.90992558 467.16990773 -186.90992558 467.16990773 -188.10128242 467.10856813 C-194.14247395 466.76588823 -200.04257778 466.03043538 -205.98488152 464.87460971 C-206.86466668 464.7218558 -207.74445183 464.5691019 -208.65089715 464.41171908 C-214.94130822 463.23893058 -220.5694523 461.24490692 -226.42238152 458.68710971 C-227.15738884 458.37700961 -227.89239617 458.06690951 -228.64967644 457.74741244 C-246.09255513 450.28255989 -262.99832687 440.22814959 -276.42238152 426.68710971 C-277.30925652 425.86210971 -278.19613152 425.03710971 -279.10988152 424.18710971 C-284.63757412 418.21122582 -289.32696667 411.70941071 -293.42238152 404.68710971 C-293.90577996 403.86944125 -293.90577996 403.86944125 -294.39894402 403.03525424 C-309.67545781 377.09128275 -316.91844606 351.50058244 -316.79469597 321.35996127 C-316.79712963 319.26199802 -316.80085448 317.16403593 -316.8057586 315.06607699 C-316.81509498 309.4129063 -316.80580229 303.75991097 -316.79242647 298.10675406 C-316.78102593 292.15842136 -316.78522624 286.21009621 -316.78717339 280.2617557 C-316.78805394 270.27232672 -316.77702846 260.2829659 -316.75856316 250.29355502 C-316.73742253 238.7919731 -316.73388224 227.29049111 -316.74012512 215.7888937 C-316.74584823 204.67023312 -316.74013708 193.55160726 -316.72895157 182.43295169 C-316.72434208 177.7269565 -316.72341578 173.0209828 -316.72553742 168.31498599 C-316.72744093 162.7563769 -316.7191604 157.19786741 -316.70347703 151.63928103 C-316.69928534 149.61585027 -316.69834842 147.5924093 -316.70116723 145.56897616 C-316.74243771 110.60253911 -316.74243771 110.60253911 -311.29738152 95.99960971 C-310.99316277 95.13932162 -310.68894402 94.27903354 -310.37550652 93.39267612 C-298.64523429 61.08078295 -278.05804841 36.47010519 -249.42238152 17.68710971 C-248.80153679 17.25994662 -248.18069207 16.83278354 -247.54103386 16.39267612 C-242.1153061 12.77875141 -236.45731171 10.63171184 -230.29738152 8.56210971 C-229.2820031 8.21591586 -228.26662468 7.86972201 -227.22047722 7.51303744 C-210.80988479 2.0289087 -195.22289904 0.54770654 -177.99684441 0.4659183 C-176.35087109 0.45467952 -174.70490042 0.44304634 -173.05893242 0.43105197 C-168.60225401 0.3998595 -164.14556081 0.37463865 -159.68883741 0.35085511 C-155.93207474 0.3302709 -152.17533244 0.30677561 -148.41858679 0.28331792 C-139.50882181 0.22775013 -130.59903818 0.17707218 -121.68922722 0.12949252 C-112.61713445 0.08096734 -103.54511606 0.02459837 -94.47309607 -0.03592861 C-86.60649457 -0.08813009 -78.73987275 -0.1352427 -70.87321764 -0.17861617 C-66.21119311 -0.20435976 -61.54919621 -0.23171337 -56.88721192 -0.26398969 C-37.92123398 -0.39297906 -18.96336506 -0.38337919 0 0 Z M-192.17401421 37.59490085 C-192.98530638 37.6744072 -193.79659854 37.75391356 -194.63247532 37.8358292 C-213.31632515 39.84749333 -229.12197735 46.68770142 -243.42238152 58.68710971 C-243.94799675 59.11628695 -244.47361199 59.5454642 -245.01515496 59.98764682 C-249.37020054 63.55423254 -252.89891739 67.3157903 -256.42238152 71.68710971 C-257.20999871 72.65261752 -257.9976159 73.61812533 -258.80910027 74.61289096 C-266.20161284 84.07656316 -270.49855585 94.40075262 -274.42238152 105.68710971 C-274.65489422 106.3198034 -274.88740692 106.95249709 -275.12696546 107.60436332 C-277.00462211 112.89952708 -278.08011152 117.88666786 -278.59271538 123.47272372 C-278.67243149 124.29001921 -278.75214761 125.10731469 -278.83427936 125.9493767 C-279.67625211 135.33313065 -279.71109694 144.70303069 -279.69703972 154.11728549 C-279.70140085 156.08262964 -279.70658858 158.04797209 -279.71252739 160.0133121 C-279.7257734 165.29003922 -279.72651269 170.5666941 -279.7239641 175.84343457 C-279.72288521 180.27164621 -279.7278006 184.69984377 -279.73256952 189.12805235 C-279.74361335 199.58215668 -279.74413015 210.03622505 -279.73805535 220.49033237 C-279.73201001 231.23032155 -279.74435266 241.9701799 -279.76562542 252.71014678 C-279.78330009 261.97866784 -279.78923384 271.24714746 -279.78598768 280.51568472 C-279.78418514 286.03078024 -279.78670791 291.54578225 -279.80070221 297.0608623 C-279.81337321 302.24689734 -279.81124974 307.43272948 -279.79829133 312.61876178 C-279.79594663 314.50800532 -279.79858337 316.39726358 -279.80691445 318.2864902 C-279.86931454 333.55161021 -278.74486601 348.34899571 -273.04738152 362.68710971 C-272.74066521 363.48544223 -272.4339489 364.28377475 -272.11793816 365.10629916 C-268.99150985 373.07971305 -265.21269782 379.9768752 -259.93800652 386.73007846 C-258.95571105 387.99845483 -258.0050536 389.29223519 -257.09425652 390.61289096 C-250.88563497 399.51548336 -242.25427815 406.48865893 -233.42238152 412.68710971 C-232.79718621 413.15375033 -232.1719909 413.62039096 -231.52785027 414.10117221 C-226.58432645 417.63631162 -221.3294862 420.32622671 -215.85988152 422.93710971 C-214.7974926 423.44927035 -214.7974926 423.44927035 -213.71364129 423.97177768 C-199.0640958 430.79001859 -183.27376286 429.84015453 -167.45997918 429.84824252 C-165.34154468 429.85287754 -163.223111 429.85790311 -161.10467827 429.86328769 C-155.37530097 429.87634373 -149.64593535 429.88284275 -143.91654551 429.88729835 C-140.33150782 429.89023876 -136.74647326 429.89434525 -133.16143715 429.89880252 C-121.92796914 429.9124566 -110.69450836 429.9221347 -99.46103263 429.92600441 C-86.52335101 429.93048677 -73.58577494 429.9480518 -60.64812541 429.977005 C-50.62485128 429.99865297 -40.60160679 430.00871028 -30.57830954 430.01004553 C-24.60155482 430.01109088 -18.62489961 430.01694176 -12.64816964 430.03486514 C-7.02561621 430.05140081 -1.40323657 430.05347468 4.21933258 430.04472613 C6.27473436 430.04395883 8.33014572 430.04825771 10.38552368 430.05818439 C25.55317281 430.12710483 38.2232091 428.64318544 52.26511848 422.43710971 C53.17431037 422.03943393 54.08350227 421.64175815 55.02024543 421.23203158 C61.42611531 418.35961994 67.20657793 415.25694531 72.57761848 410.68710971 C73.41164192 409.98843783 74.24566535 409.28976596 75.10496223 408.56992221 C94.82427295 391.43043108 106.33970158 370.45864056 110.57761848 344.68710971 C110.77486051 341.71237688 110.83483964 338.73772382 110.89402473 335.75742221 C110.91489646 334.85077319 110.9357682 333.94412417 110.95727241 333.01000094 C111.02467719 329.94413292 111.08339487 326.87819334 111.14011848 323.81210971 C111.16096504 322.72427188 111.18181159 321.63643405 111.20328987 320.51563144 C111.78678686 289.1573102 111.74351468 257.79858768 111.59076393 226.43677402 C111.57700232 223.55822658 111.56422525 220.67967582 111.55155647 217.80112338 C111.49463304 205.16546756 111.41526348 192.53015335 111.31315315 179.89478183 C111.27995637 175.74080434 111.25308885 171.58686155 111.23173225 167.43280673 C111.20588227 162.51191204 111.1655119 157.5913346 111.1145581 152.67063785 C111.09803653 150.85694049 111.08632733 149.04319143 111.07997024 147.22942996 C111.03889956 136.62074124 110.32886551 126.99344365 107.57761848 116.68710971 C107.37526588 115.90419055 107.17291328 115.12127139 106.96442878 114.31462741 C99.52474941 86.90363623 81.53899379 64.33645364 57.06199348 50.05820346 C37.29951328 39.15155165 16.24366709 36.21320089 -5.93532097 36.31479526 C-7.82653801 36.31236014 -9.71775374 36.30863389 -11.60896599 36.30373263 C-16.69392107 36.29441655 -21.7786805 36.30367118 -26.86362016 36.31706476 C-32.22070607 36.32848759 -37.57778385 36.32426333 -42.93487847 36.32231784 C-51.92968686 36.32143803 -60.92441944 36.33244757 -69.91920769 36.35092807 C-80.26826607 36.37207142 -90.61721338 36.37560771 -100.96628898 36.36936611 C-110.9813074 36.36363871 -120.99628734 36.36935888 -131.01130021 36.38053966 C-135.24560246 36.38514315 -139.47988084 36.38607814 -143.71418488 36.38395381 C-148.71714639 36.3820472 -153.71999754 36.39035371 -158.72293389 36.4060142 C-160.54157027 36.41019782 -162.36021797 36.41114852 -164.17885697 36.408324 C-173.56137495 36.39598024 -182.83181356 36.678389 -192.17401421 37.59490085 Z " fill="#FDFDFD" transform="translate(327.4223815202713,22.31289029121399)"/>
<path d="M0 0 C2.54846351 2.24488478 5.02705543 4.54682448 7.4921875 6.8828125 C8.40097656 7.72714844 9.30976563 8.57148438 10.24609375 9.44140625 C25.22530025 23.79561109 37.24951328 43.4137702 41.4921875 63.8828125 C41.80736328 65.33880859 41.80736328 65.33880859 42.12890625 66.82421875 C46.28667107 89.44127984 46.02807247 115.30829418 37.4921875 136.8828125 C37.2657959 137.48432129 37.0394043 138.08583008 36.80615234 138.70556641 C29.83892403 157.04110389 18.26698788 171.15167234 4.4921875 184.8828125 C3.51572266 185.90761719 3.51572266 185.90761719 2.51953125 186.953125 C-18.17379293 207.29833718 -48.81874287 214.2563307 -76.90478516 214.11791992 C-85.23654975 213.98472644 -93.28846338 213.33674644 -101.5078125 211.8828125 C-102.19004883 211.7698584 -102.87228516 211.6569043 -103.57519531 211.54052734 C-115.31539235 209.52815305 -124.49874851 205.23186576 -134.5078125 198.8828125 C-135.57902344 198.23054687 -136.65023437 197.57828125 -137.75390625 196.90625 C-163.22190973 180.81073674 -183.10727472 153.5680875 -190.41015625 124.26171875 C-197.79402309 89.80919209 -192.01449708 55.36422638 -173.0234375 25.94921875 C-161.11332105 8.26327743 -144.16450275 -5.10950541 -125.5078125 -15.1171875 C-124.83298828 -15.48505371 -124.15816406 -15.85291992 -123.46289062 -16.23193359 C-85.42950573 -36.48036894 -32.20206842 -27.18616991 0 0 Z M-81.0546875 10.97265625 C-102.2453981 11.93801084 -117.57747125 21.74574258 -132.5078125 35.8828125 C-133.36503906 36.68460938 -134.22226563 37.48640625 -135.10546875 38.3125 C-148.37870299 51.84323966 -154.89307206 68.7623471 -155.3203125 87.3828125 C-155.33706024 88.04888519 -155.35380798 88.71495789 -155.37106323 89.4012146 C-155.8991613 111.48685273 -152.8021032 129.31028571 -138.5078125 146.8828125 C-137.78078125 147.78386719 -137.05375 148.68492187 -136.3046875 149.61328125 C-130.14050524 156.8213976 -123.4769501 161.90696073 -115.5078125 166.8828125 C-114.63640625 167.4603125 -113.765 168.0378125 -112.8671875 168.6328125 C-95.58761086 179.23377977 -71.88438936 179.33878756 -52.68359375 174.78515625 C-38.44553166 170.73965521 -25.89877949 163.4050733 -15.5078125 152.8828125 C-14.89679688 152.29371094 -14.28578125 151.70460938 -13.65625 151.09765625 C3.61252889 133.15862795 7.68114242 109.75041259 7.4921875 85.8828125 C6.3761411 63.35735015 -6.11433689 43.41352643 -22.37548828 28.66601562 C-39.69933357 14.17856818 -59.06132242 10.41555559 -81.0546875 10.97265625 Z " fill="#FDFDFD" transform="translate(317.5078125,162.1171875)"/>
<path d="M0 0 C5.79659298 5.68790687 7.96781762 13.60273205 8.125 21.52734375 C7.9884841 30.72851534 4.98612239 38.90683505 -1.125 45.83984375 C-9.19711108 52.70628432 -17.1052935 54.33701467 -27.5546875 54.1484375 C-35.76881687 53.43846352 -42.49476679 50.52875208 -48.47265625 44.83203125 C-51.2394302 41.4962045 -52.69850665 37.89408802 -54.125 33.83984375 C-54.74375 32.44765625 -54.74375 32.44765625 -55.375 31.02734375 C-57.34520484 22.65397319 -56.11 14.5754586 -54.375 6.27734375 C-54.21821777 5.49133789 -54.06143555 4.70533203 -53.89990234 3.89550781 C-53.18354898 0.73476171 -52.61601311 -1.57094052 -50.5234375 -4.08203125 C-46.94858695 -5.68896733 -43.3607575 -6.2710162 -39.5 -6.84765625 C-38.28340698 -7.0343689 -38.28340698 -7.0343689 -37.04223633 -7.22485352 C-23.70710495 -9.17949706 -11.35610412 -8.20395022 0 0 Z " fill="#FDFDFD" transform="translate(388.125,109.16015625)"/>
</svg>
