<?xml version="1.0" encoding="UTF-8"?>
<svg version="1.1" xmlns="http://www.w3.org/2000/svg" width="320" height="320">
<path d="M0 0 C13.01410997 10.40701405 20.3728203 24.63382682 22.6859808 41.08644676 C23.37915076 47.69523985 23.51480119 54.22812761 23.49243164 60.86962891 C23.49257767 62.0220105 23.49272369 63.17439209 23.49287415 64.36169434 C23.49218224 68.1382847 23.48442386 71.9148246 23.4765625 75.69140625 C23.47469575 78.32270277 23.47327306 80.95399964 23.47227478 83.58529663 C23.46917974 89.78276644 23.46099122 95.98021839 23.45092529 102.17768037 C23.43860446 109.93355431 23.43316708 117.68943121 23.42773438 125.4453125 C23.41802456 139.26433679 23.39798744 153.08332217 23.37890625 166.90234375 C5.22890625 166.90234375 -12.92109375 166.90234375 -31.62109375 166.90234375 C-31.646875 159.52246094 -31.67265625 152.14257812 -31.69921875 144.5390625 C-31.72440028 139.84957516 -31.75074338 135.16015147 -31.78125 130.47070312 C-31.82950734 123.03572388 -31.87358141 115.60089207 -31.89208984 108.16577148 C-31.90729027 102.16796843 -31.94179659 96.17055242 -31.98940277 90.17292213 C-32.00418156 87.89056586 -32.01213274 85.60815432 -32.0129776 83.32575035 C-32.0153595 80.11608521 -32.04253851 76.90747913 -32.07519531 73.69799805 C-32.07016495 72.76506927 -32.06513458 71.8321405 -32.05995178 70.87094116 C-32.21599235 60.88688639 -35.38524993 51.03722231 -42.62109375 43.90234375 C-49.02779543 38.96085187 -57.34125561 38.30584295 -65.1796875 39.19140625 C-69.73015366 40.0968953 -73.52061159 41.70208503 -77.62109375 43.90234375 C-78.28109375 43.90234375 -78.94109375 43.90234375 -79.62109375 43.90234375 C-79.62109375 44.56234375 -79.62109375 45.22234375 -79.62109375 45.90234375 C-80.19859375 46.43859375 -80.77609375 46.97484375 -81.37109375 47.52734375 C-92.5885825 59.36802632 -91.08763818 78.08788894 -91.1328125 93.171875 C-91.1496865 95.30564895 -91.16784033 97.43941313 -91.18721008 99.57316589 C-91.23442081 105.14772485 -91.26441651 110.72224416 -91.29064941 116.29693604 C-91.32588227 123.00783565 -91.38281161 129.71858309 -91.43604279 136.42935944 C-91.51421687 146.58700068 -91.56507949 156.7444474 -91.62109375 166.90234375 C-108.78109375 166.90234375 -125.94109375 166.90234375 -143.62109375 166.90234375 C-143.62109375 109.48234375 -143.62109375 52.06234375 -143.62109375 -7.09765625 C-126.46109375 -7.09765625 -109.30109375 -7.09765625 -91.62109375 -7.09765625 C-91.29109375 -0.49765625 -90.96109375 6.10234375 -90.62109375 12.90234375 C-89.96109375 11.91234375 -89.30109375 10.92234375 -88.62109375 9.90234375 C-87.96109375 9.90234375 -87.30109375 9.90234375 -86.62109375 9.90234375 C-86.24597656 9.03222656 -86.24597656 9.03222656 -85.86328125 8.14453125 C-80.40214626 -1.71298915 -68.16455413 -6.91869363 -57.88647461 -9.93432617 C-38.16507237 -15.20212653 -16.56718562 -12.2633471 0 0 Z " fill="#FEFEFE" transform="translate(266.62109375,123.09765625)"/>
<path d="M0 0 C17.82 0 35.64 0 54 0 C54 57.42 54 114.84 54 174 C36.18 174 18.36 174 0 174 C0 116.58 0 59.16 0 0 Z " fill="#FEFEFE" transform="translate(36,116)"/>
<path d="M0 0 C0.62261719 0.39445312 1.24523437 0.78890625 1.88671875 1.1953125 C2.51964844 1.56914063 3.15257812 1.94296875 3.8046875 2.328125 C10.20604436 6.45010746 14.20014987 12.20127162 16.3828125 19.47265625 C18.19592206 29.2690699 17.96834867 38.90708713 12.4921875 47.34375 C9.95707743 50.8993221 7.56958094 53.77727167 3.88671875 56.1953125 C3.22671875 56.1953125 2.56671875 56.1953125 1.88671875 56.1953125 C1.88671875 56.8553125 1.88671875 57.5153125 1.88671875 58.1953125 C-4.00864568 60.72763949 -8.72303206 61.66845626 -15.11328125 61.5703125 C-15.86867188 61.58191406 -16.6240625 61.59351562 -17.40234375 61.60546875 C-25.80505997 61.56215578 -32.1110858 59.04745306 -38.11328125 53.1953125 C-38.11328125 52.5353125 -38.11328125 51.8753125 -38.11328125 51.1953125 C-38.77328125 51.1953125 -39.43328125 51.1953125 -40.11328125 51.1953125 C-41.33203125 49.65625 -41.33203125 49.65625 -42.61328125 47.5703125 C-43.2475 46.56097656 -43.2475 46.56097656 -43.89453125 45.53125 C-47.85662578 37.93723549 -48.30373021 29.57729412 -47.11328125 21.1953125 C-43.9978119 11.36107294 -38.21212849 4.12770024 -29.17578125 -0.7421875 C-20.22413294 -4.47101204 -8.63860315 -4.70598191 0 0 Z " fill="#FEFEFE" transform="translate(78.11328125,33.8046875)"/>
</svg>
