<svg xmlns="http://www.w3.org/2000/svg" width="101.063" height="118.423" viewBox="137 199 101.063 118.423"><g data-name="kamquat logo"><path d="M627 263.179s14.094-10.398 20.101-27.264c0 0 2.773-.462 3.697 2.541 0 0-19.87 23.798-17.56 28.42L627 263.178Z" fill="#603813" fill-rule="evenodd" style="--darkreader-inline-fill:#92877c" transform="translate(-421.515 -36.89)" data-name="Path 35"/><path d="M401.385 392.98c-17.884 24.7-41.381 33.271-57.832 21.372-16.45-11.899-18.045-36.413-.162-61.112 7.37-10.166 18.253-20.887 27.495-25.646 13.193-6.793 27.795-9.705 37.453-2.704 12.223 8.85 12.43 24.422 5.522 43.6-2.38 6.584-7.902 18.183-12.476 24.49Z" fill="#ffa44c" fill-rule="evenodd" style="--darkreader-inline-fill:#4f3c29" transform="translate(-193.589 -102.228)" data-name="Path 36"/><path d="M0 37.907a38.007 38.007 0 1 1 0 .1z" fill="#191919" fill-rule="evenodd" style="--darkreader-inline-fill:#0e0e0e" transform="translate(161.817 240.614)" data-name="Ellipse 6"/><path d="M0 37.33a37.43 37.43 0 1 1 0 .1z" fill="#ffa44c" fill-rule="evenodd" style="--darkreader-inline-fill:#4f3c29" transform="translate(163.204 242.232)" data-name="Ellipse 7"/><path d="M0 32.154a32.254 32.254 0 1 1 0 .1z" fill="#ffd3b6" fill-rule="evenodd" style="--darkreader-inline-fill:#2d1f16" transform="translate(168.38 247.407)" data-name="Ellipse 8"/><path d="M0 28.573a28.673 28.673 0 1 1 0 .1z" fill="#d46200" fill-rule="evenodd" style="--darkreader-inline-fill:#533d2a" transform="translate(171.96 250.988)" data-name="Ellipse 9"/><path d="M569 455.91s3.95 2.034 3.95 10.698v17.745c0 9.08.278 13.331 0 17.767-.16 2.75-.854 6.793-3.95 10.282 0 0 6.146 4.99 13.308 0 0 0-3.604-1.594-3.604-10.282v-17.767c0-9.08-.323-13.332 0-17.745.208-2.819 1.248-8.271 3.604-10.697.024 0-6.353-5.2-13.308 0Z" fill="#ffd3b6" fill-rule="evenodd" style="--darkreader-inline-fill:#2d1f16" transform="translate(-376.915 -204.298)" data-name="Path 37"/><path d="M596.65 504.178c6.423-6.423 9.242-9.635 12.57-12.569 2.056-1.825 5.406-4.205 10.05-4.482 0 0-.809-7.856-9.427-9.427 0 0 1.41 3.674-4.713 9.82l-12.57 12.569c-6.4 6.446-.762 8.964 4.09 4.09Z" fill="#ffd3b6" fill-rule="evenodd" style="--darkreader-inline-fill:#9b8c82" transform="translate(-392.828 -222.83)" data-name="Path 38"/><path d="M596.65 572.606c6.423 6.423 9.242 9.635 12.57 12.57 2.056 1.824 5.406 4.204 10.05 4.481 0 0-.809 7.856-9.427 9.427 0 0 1.41-3.674-4.713-9.82l-12.57-12.568c-6.4-6.447-.762-8.965 4.09-4.09Z" fill="#ffd3b6" fill-rule="evenodd" style="--darkreader-inline-fill:#9b8c82" transform="translate(-392.828 -293.846)" data-name="Path 39"/></g></svg>