<?xml version="1.0" encoding="UTF-8"?>
<svg version="1.1" xmlns="http://www.w3.org/2000/svg" width="225" height="225">
<path d="M0 0 C17.62335354 14.87881828 31.03676494 36.38396329 33.9375 59.58984375 C34.04905053 61.29656684 34.12889336 63.00548349 34.1875 64.71484375 C34.2390625 65.9059375 34.290625 67.09703125 34.34375 68.32421875 C35.15486318 95.41606947 24.55379989 118.48214096 6.11181641 138.17651367 C-15.07697636 160.09943374 -45.22545195 170.65039174 -75.2421875 171.80859375 C-79.57057632 171.86253006 -83.72255188 171.75325963 -88.00390625 171.1015625 C-101.84307967 169.28647058 -111.58316074 173.24441483 -124.15234375 178.83984375 C-133.10421821 182.81558612 -142.32230547 185.38111557 -151.8125 187.71484375 C-152.81410156 187.97910156 -153.81570312 188.24335938 -154.84765625 188.515625 C-160.88470961 189.88725845 -166.96025359 189.90850434 -173.125 189.96484375 C-173.98617432 189.97435059 -174.84734863 189.98385742 -175.73461914 189.99365234 C-180.49062316 189.96860854 -184.34471402 189.55151923 -188.8125 187.71484375 C-188.32255641 183.28202076 -186.95301483 181.38353194 -183.75 178.33984375 C-182.9353125 177.55738281 -182.120625 176.77492187 -181.28125 175.96875 C-179.14298184 174.0165653 -176.96724903 172.13824919 -174.75 170.27734375 C-167.08844324 163.65567893 -159.74280439 155.08944417 -158.4375 144.7421875 C-158.93331884 140.73948333 -160.32656589 139.67601121 -163.3125 137.02734375 C-179.15142386 122.0138286 -190.22127394 99.40031488 -191.015625 77.40234375 C-191.46999942 50.18329005 -182.53954728 26.4275251 -163.8125 6.71484375 C-148.74191029 -8.71034808 -129.56295279 -18.82181083 -108.8125 -24.28515625 C-107.64074219 -24.60613281 -106.46898438 -24.92710938 -105.26171875 -25.2578125 C-68.38170996 -33.77467812 -28.94776926 -23.86301638 0 0 Z " fill="#FCFCFC" transform="translate(190.8125,31.28515625)"/>
</svg>
