<?xml version="1.0" encoding="UTF-8"?>
<svg version="1.1" xmlns="http://www.w3.org/2000/svg" width="494" height="505">
<path d="M0 0 C7.73848869 -0.08480536 7.73848869 -0.08480536 11.2265625 2.53125 C11.9690625 3.500625 12.7115625 4.47 13.4765625 5.46875 C14.6618188 6.51296894 15.84949567 7.55444424 17.0390625 8.59375 C19.80780453 11.37901244 21.12765733 13.70543154 22.3359375 17.4296875 C24.53962538 23.81398642 27.29779953 29.85839641 30.1640625 35.96875 C30.69153076 37.10296387 31.21899902 38.23717773 31.76245117 39.40576172 C35.26616475 46.92667786 38.81973495 54.42352733 42.39550781 61.91040039 C44.6729026 66.70090758 46.82645475 71.53048269 48.9140625 76.40625 C51.64394773 82.74979042 54.6010696 88.9669074 57.6640625 95.15625 C58.08034912 96.00630615 58.49663574 96.8563623 58.92553711 97.73217773 C61.10145098 102.08008335 63.42302453 105.66879163 66.4765625 109.46875 C68.14390887 114.54367858 67.8467553 119.66311804 65.62817383 124.50952148 C61.92883617 130.80317947 54.45978604 134.50782773 48.3515625 138.09375 C39.69018315 142.58895058 39.69018315 142.58895058 33.43359375 149.578125 C32.14617735 152.12142923 30.73148072 152.56233305 28.1640625 153.71875 C23.6827542 156.02015554 22.05674208 158.34602752 19.72265625 162.69921875 C18.4765625 164.46875 18.4765625 164.46875 14.9140625 165.90625 C11.02122359 167.67572223 10.75986503 168.27992315 9.1640625 172.03125 C8.87917969 172.81628906 8.59429687 173.60132813 8.30078125 174.41015625 C7.4765625 176.46875 7.4765625 176.46875 5.4765625 178.46875 C5.7362269 183.48892841 6.70973825 187.49819352 8.6105957 192.17944336 C9.61888249 194.84499318 10.36810768 197.54306495 11.14453125 200.28515625 C13.53800884 208.13169576 16.92922228 215.34664462 20.4765625 222.71875 C21.40630983 224.67228584 22.33357551 226.62698688 23.26075745 228.58174133 C23.85899062 229.84180134 24.4585321 231.10124112 25.05943298 232.36003113 C26.60657514 235.60553862 28.10959686 238.86292052 29.54296875 242.16015625 C42.87872375 272.50976491 61.04324473 302.24577838 81.08496094 328.62841797 C82.59730619 330.62842824 84.08883359 332.64292717 85.578125 334.66015625 C92.39576309 343.90756574 92.39576309 343.90756574 99.828125 352.66015625 C101.08264237 354.03655801 102.30026013 355.44669217 103.5 356.87109375 C104.19351563 357.68707031 104.88703125 358.50304687 105.6015625 359.34375 C106.22289062 360.08367187 106.84421875 360.82359375 107.484375 361.5859375 C111.96661445 365.82209322 116.65132645 365.76627058 122.51171875 365.671875 C126.35029216 365.40888973 130.01810394 364.67352263 133.78515625 363.91796875 C141.02908661 362.70889474 148.2456042 363.53572312 155.4765625 364.46875 C155.2084375 363.39625 154.9403125 362.32375 154.6640625 361.21875 C154.4765625 357.46875 154.4765625 357.46875 156.2265625 355.40625 C160.00906697 353.15129541 163.88112526 351.10225911 167.78125 349.05859375 C170.24814993 347.60348031 171.97434076 346.17298059 173.9765625 344.15625 C177.55263042 340.90527916 180.96058785 340.46574715 185.70703125 340.31640625 C192.51370287 340.69082119 196.84148798 342.37052323 201.5390625 347.40625 C205.02825593 351.68068265 208.07730795 356.20235958 211.078125 360.828125 C214.1042141 365.46936595 217.29600842 369.99514612 220.4765625 374.53125 C221.08790039 375.40442871 221.69923828 376.27760742 222.32910156 377.17724609 C225.45258859 381.62674176 228.61240769 386.04043265 231.8515625 390.40625 C234.4863292 393.98754003 236.82619664 397.64938589 239.1015625 401.46875 C242.558745 407.20344523 246.40554034 412.54488486 250.4140625 417.90625 C268.85055874 442.64370294 268.85055874 442.64370294 269.7265625 453.59375 C265.89777434 462.39996276 253.92502522 467.05066966 245.4765625 470.46875 C240.07504998 471.91613363 234.92126768 473.20696574 229.4765625 471.46875 C229.8065625 473.44875 230.1365625 475.42875 230.4765625 477.46875 C224.44479584 481.49465301 218.42448681 484.36972598 211.6640625 486.96875 C210.14945435 487.55402466 210.14945435 487.55402466 208.60424805 488.15112305 C199.37364118 491.63937047 190.09832688 494.31494895 180.4765625 496.46875 C179.65027344 496.65808105 178.82398438 496.84741211 177.97265625 497.04248047 C167.82617094 499.33705778 157.96955554 500.9233137 147.56640625 501.29296875 C144.43970418 501.33557289 144.43970418 501.33557289 141.4765625 502.46875 C134.29040267 503.16674345 129.4825695 501.14776654 123.1015625 497.96875 C122.16908691 497.51314697 121.23661133 497.05754395 120.27587891 496.58813477 C113.61258224 493.24479849 107.98704774 489.50179247 102.4765625 484.46875 C100.7312159 483.06710242 98.98092569 481.67159546 97.2265625 480.28125 C91.49220907 475.5880274 86.10961473 470.5540014 80.7109375 465.484375 C78.20027372 463.1304463 75.64818379 460.83880786 73.0390625 458.59375 C69.91144978 455.89960173 67.01715889 453.03313407 64.12890625 450.0859375 C62.30418238 448.25156076 62.30418238 448.25156076 59.4140625 445.96875 C56.61404779 443.58575876 54.37627013 441.15128923 52.06640625 438.3125 C49.98862053 435.90288118 47.74276844 433.70196896 45.4765625 431.46875 C36.32172055 422.43251457 27.8472894 413.18816687 19.734375 403.19140625 C17.68602102 400.72133233 15.57637866 398.3388181 13.4140625 395.96875 C9.02876195 391.08177799 5.25863315 385.82900086 1.4765625 380.46875 C-0.14556955 378.17503895 -1.77111257 375.88377931 -3.3984375 373.59375 C-3.82068604 372.99739746 -4.24293457 372.40104492 -4.67797852 371.78662109 C-7.45066806 367.89507163 -10.35421528 364.14185985 -13.3359375 360.40625 C-18.45369395 353.9321904 -22.7055424 346.94551527 -26.9699707 339.89038086 C-29.26230879 336.09946632 -31.54162574 332.36417867 -34.171875 328.796875 C-36.64489468 325.4100317 -38.51368668 321.86284185 -40.3359375 318.09375 C-40.67431641 317.40748535 -41.01269531 316.7212207 -41.36132812 316.01416016 C-43.12905327 312.4092752 -44.84926755 308.78445291 -46.53515625 305.140625 C-46.86354492 304.43115723 -47.19193359 303.72168945 -47.53027344 302.99072266 C-48.19509343 301.55354787 -48.85849408 300.1157157 -49.52050781 298.67724609 C-51.62933045 294.16378845 -53.9812431 289.96455243 -56.5859375 285.71875 C-60.40834362 279.21618022 -62.69503548 272.56641766 -64.95825195 265.39038086 C-66.64690218 260.04354389 -68.5194555 254.91219051 -70.7734375 249.78125 C-79.88490259 228.57475648 -86.00421472 205.75316267 -91.72851562 183.44311523 C-92.5872846 180.2298528 -93.53767437 177.05051594 -94.48828125 173.86328125 C-96.68281413 166.23653438 -98.23350962 158.53711493 -99.70605469 150.74584961 C-100.14884637 148.40408763 -100.60098086 146.06427867 -101.0546875 143.72460938 C-109.08732387 102.04133116 -109.08732387 102.04133116 -101.5234375 88.46875 C-101.09933594 87.581875 -100.67523438 86.695 -100.23828125 85.78125 C-96.67385296 78.63253588 -92.00364147 73.21958132 -86.5234375 67.46875 C-85.39064852 66.1839088 -84.26516187 64.89257811 -83.1484375 63.59375 C-69.96042644 48.50421176 -69.96042644 48.50421176 -64.5859375 44.03125 C-61.50789773 41.63501726 -61.50789773 41.63501726 -59.4609375 38.84375 C-57.1406814 35.9995651 -54.67699648 34.31975201 -51.5234375 32.46875 C-50.8634375 32.46875 -50.2034375 32.46875 -49.5234375 32.46875 C-49.28753906 31.87707031 -49.05164063 31.28539063 -48.80859375 30.67578125 C-47.22841291 27.96209683 -45.57969975 26.87340396 -42.9609375 25.15625 C-40.42556291 23.48087447 -37.9413759 21.81276661 -35.59375 19.88037109 C-29.69644139 15.03103016 -23.59448348 11.83647652 -16.6484375 8.71875 C-14.60670741 7.79231497 -12.5675161 6.86025872 -10.53125 5.921875 C-9.19537842 5.32101074 -9.19537842 5.32101074 -7.83251953 4.70800781 C-4.77352989 3.0662832 -3.43408982 0.63791142 0 0 Z M-24.5234375 35.46875 C-23.50622655 39.43587269 -21.97825398 42.4064099 -19.6484375 45.71875 C-16.42473775 50.356769 -14.40591686 55.16458758 -12.5234375 60.46875 C-11.8634375 60.46875 -11.2034375 60.46875 -10.5234375 60.46875 C-11.07431059 55.07019375 -12.99543374 51.01588997 -15.4609375 46.28125 C-15.82123047 45.57033203 -16.18152344 44.85941406 -16.55273438 44.12695312 C-18.09300147 41.11166045 -19.64069128 38.29286932 -21.5234375 35.46875 C-22.5134375 35.46875 -23.5034375 35.46875 -24.5234375 35.46875 Z M-10.5234375 63.46875 C-10.1460954 69.12888156 -8.34489762 73.40864688 -5.9140625 78.5078125 C-4.51714329 81.48215172 -3.25988442 84.48708638 -2.0234375 87.53125 C-0.13551281 92.11536713 1.9736229 96.51270632 4.234375 100.921875 C5.56346945 103.64693657 6.7140956 106.40853765 7.8515625 109.21875 C11.0666879 117.0835979 14.69891822 124.91814129 19.12890625 132.17578125 C20.4765625 134.46875 20.4765625 134.46875 21.4140625 137.71875 C21.7646875 138.62625 22.1153125 139.53375 22.4765625 140.46875 C24.50899798 141.43752057 24.50899798 141.43752057 26.4765625 141.46875 C27.80395375 138.6223845 27.80395375 138.6223845 26.62109375 136.59375 C26.18152344 135.8925 25.74195313 135.19125 25.2890625 134.46875 C22.78560975 130.2273631 21.14791895 126.02683263 19.6640625 121.33984375 C18.63172617 118.84389901 17.532269 116.94070198 16.05859375 114.703125 C13.31218338 110.43467431 11.75088592 106.07751696 10.1640625 101.28125 C7.59475723 93.88334835 4.51270764 87.75003561 0.1953125 81.19921875 C-1.99584266 77.71826999 -3.18597241 74.34739877 -4.5234375 70.46875 C-5.76877307 68.06998555 -7.12468187 65.78393173 -8.5234375 63.46875 C-9.1834375 63.46875 -9.8434375 63.46875 -10.5234375 63.46875 Z M161.4765625 373.46875 C160.84867947 379.09389386 162.82829706 382.22173831 166.0390625 386.59375 C166.52141357 387.27244141 167.00376465 387.95113281 167.50073242 388.65039062 C169.13932001 390.93849219 170.80357867 393.20568273 172.4765625 395.46875 C173.10240234 396.3153418 173.72824219 397.16193359 174.37304688 398.03417969 C178.14059337 403.11193265 181.93864437 408.16585438 185.76269531 413.20117188 C187.91836046 416.05328268 190.04264634 418.92824123 192.16040039 421.80859375 C193.5962073 423.69866898 193.5962073 423.69866898 196.1015625 425.96875 C198.22800124 428.20710657 199.14868074 429.62552251 200.4140625 432.34375 C202.40070095 436.60894111 204.99072387 440.28169754 208.4765625 443.46875 C209.1365625 443.46875 209.7965625 443.46875 210.4765625 443.46875 C210.7034375 444.21125 210.9303125 444.95375 211.1640625 445.71875 C212.72063782 448.98014591 214.56175104 450.39769975 217.4765625 452.46875 C216.09944956 442.74180036 207.66723628 432.82640136 201.4765625 425.46875 C200.8165625 425.46875 200.1565625 425.46875 199.4765625 425.46875 C199.25097656 424.63988281 199.02539062 423.81101562 198.79296875 422.95703125 C197.19528568 418.72340816 194.99203966 415.35113082 192.4140625 411.65625 C191.92671631 410.95064941 191.43937012 410.24504883 190.93725586 409.51806641 C187.47696907 404.61857519 183.71309665 400.38672536 179.3359375 396.2734375 C176.90593432 393.914905 175.22437188 391.36167588 173.4765625 388.46875 C172.45883105 386.96664368 171.43773804 385.46681177 170.4140625 383.96875 C168.13772173 380.56288317 166.19201671 377.18556746 164.4765625 373.46875 C163.4865625 373.46875 162.4965625 373.46875 161.4765625 373.46875 Z M220.4765625 459.46875 C220.8065625 460.45875 221.1365625 461.44875 221.4765625 462.46875 C222.1365625 462.46875 222.7965625 462.46875 223.4765625 462.46875 C223.1465625 461.47875 222.8165625 460.48875 222.4765625 459.46875 C221.8165625 459.46875 221.1565625 459.46875 220.4765625 459.46875 Z " fill="#FEFEFE" transform="translate(167.5234375,-0.46875)"/>
</svg>
