<?xml version="1.0" encoding="UTF-8"?>
<svg version="1.1" xmlns="http://www.w3.org/2000/svg" width="60" height="66">
<path d="M0 0 C3.3 0 6.6 0 10 0 C10 16.83 10 33.66 10 51 C12.64 51 15.28 51 18 51 C17.58685438 55.44926052 14.49538473 57.84100104 11.4375 60.75 C10.91736328 61.25660156 10.39722656 61.76320312 9.86132812 62.28515625 C8.58089916 63.53034405 7.29132446 64.76611502 6 66 C1.81905439 64.61872845 -0.70704822 62.72530177 -3.8125 59.625 C-4.99779297 58.46871094 -4.99779297 58.46871094 -6.20703125 57.2890625 C-8 55 -8 55 -8 51 C-5.36 51 -2.72 51 0 51 C0 34.17 0 17.34 0 0 Z " fill="#FEFEFE" transform="translate(8,0)"/>
<path d="M0 0 C6.93 0 13.86 0 21 0 C21 6.75 21 6.75 18.375 10.3046875 C17.83359375 11.05234375 17.2921875 11.8 16.734375 12.5703125 C16.16203125 13.33085938 15.5896875 14.09140625 15 14.875 C14.14148438 16.050625 14.14148438 16.050625 13.265625 17.25 C11.85611628 19.17632859 10.43427625 21.09208199 9 23 C10.98 23.33 12.96 23.66 15 24 C15.33 22.35 15.66 20.7 16 19 C17.98 19 19.96 19 22 19 C22 22.3 22 25.6 22 29 C14.74 29 7.48 29 0 29 C0 21.125 0 21.125 2.40625 17.81640625 C2.90253906 17.11708984 3.39882813 16.41777344 3.91015625 15.69726562 C4.69712891 14.64055664 4.69712891 14.64055664 5.5 13.5625 C6.02464844 12.83095703 6.54929687 12.09941406 7.08984375 11.34570312 C8.37895968 9.55266005 9.6821142 7.77194462 11 6 C9.02 6 7.04 6 5 6 C5 7.32 5 8.64 5 10 C3.35 10 1.7 10 0 10 C0 6.7 0 3.4 0 0 Z " fill="#FEFEFE" transform="translate(35,37)"/>
<path d="M0 0 C2.97 0 5.94 0 9 0 C9.23187012 0.69150146 9.46374023 1.38300293 9.70263672 2.09545898 C10.75244985 5.21210811 11.81355782 8.32479325 12.875 11.4375 C13.23980469 12.52611328 13.60460937 13.61472656 13.98046875 14.73632812 C14.33496094 15.77080078 14.68945312 16.80527344 15.0546875 17.87109375 C15.37937012 18.82943115 15.70405273 19.78776855 16.03857422 20.77514648 C16.78652927 23.16145102 16.78652927 23.16145102 19 24 C19 25.32 19 26.64 19 28 C15.04 28 11.08 28 7 28 C7 26.68 7 25.36 7 24 C7.66 24 8.32 24 9 24 C8.505 21.525 8.505 21.525 8 19 C5.69 19 3.38 19 1 19 C0.67 20.65 0.34 22.3 0 24 C0.66 24 1.32 24 2 24 C2 25.32 2 26.64 2 28 C-1.63 28 -5.26 28 -9 28 C-8.25023558 24.25117791 -7.40819133 21.04867059 -6.15234375 17.48046875 C-5.61577148 15.9480957 -5.61577148 15.9480957 -5.06835938 14.38476562 C-4.69517578 13.32966797 -4.32199219 12.27457031 -3.9375 11.1875 C-3.56044922 10.11306641 -3.18339844 9.03863281 -2.79492188 7.93164062 C-1.86625342 5.28669882 -0.93451811 2.64287946 0 0 Z M4 9 C3.34 10.98 2.68 12.96 2 15 C3.32 15 4.64 15 6 15 C5.67 13.02 5.34 11.04 5 9 C4.67 9 4.34 9 4 9 Z " fill="#FEFEFE" transform="translate(41,0)"/>
</svg>
