<?xml version="1.0" encoding="UTF-8"?>
<svg version="1.1" xmlns="http://www.w3.org/2000/svg" width="500" height="500">
<path d="M0 0 C1.6701096 -0.00378999 3.34021604 -0.00929561 5.01031494 -0.01637268 C9.51652513 -0.03025487 14.0223504 -0.01920922 18.52853894 -0.00266147 C23.2603971 0.01126103 27.99223454 0.00472088 32.72410583 0.00120544 C40.66688183 -0.00149075 48.60950619 0.01192885 56.55224609 0.03515625 C65.71649725 0.06177139 74.88049516 0.06350793 84.04477173 0.05176789 C92.88623877 0.04096485 101.7276148 0.04719638 110.56907463 0.06132317 C114.32042548 0.06706016 118.07170922 0.06701839 121.82306099 0.06225777 C126.24486644 0.05746283 130.66639682 0.06769318 135.08815002 0.08921242 C136.7045696 0.09474599 138.3210158 0.09527736 139.93743706 0.09025955 C161.40022029 0.03201996 161.40022029 0.03201996 168.65014648 6.81420898 C169.57633789 7.6437207 169.57633789 7.6437207 170.52124023 8.48999023 C175.16949933 14.01852011 175.65273845 18.95516444 175.61669922 25.8684082 C175.62356247 26.79277679 175.63042572 27.71714539 175.63749695 28.66952515 C175.65574915 31.71530664 175.65192923 34.76057219 175.64624023 37.80639648 C175.65080317 39.93100145 175.65610908 42.05560495 175.66212463 44.1802063 C175.67105294 48.6303711 175.66863616 53.08035641 175.65869141 57.53051758 C175.64720919 63.22224388 175.66740357 68.91334909 175.69660854 74.60499382 C175.71499128 78.99231884 175.71467379 83.37949564 175.70897102 87.76684952 C175.70881803 89.8647257 175.71484446 91.96261207 175.7272625 94.06045151 C175.74220754 96.99943258 175.73146889 99.93727429 175.71435547 102.8762207 C175.72885742 104.16544434 175.72885742 104.16544434 175.74365234 105.48071289 C175.66241589 112.17255017 173.82699611 117.26398646 169.60717773 122.48999023 C160.29543639 130.28426262 150.03249897 129.94111079 138.46875 129.90576172 C136.77923126 129.91147135 135.08971638 129.91843789 133.40020752 129.92655945 C128.83197685 129.94444011 124.26393881 129.94333214 119.69568372 129.93761706 C115.87372591 129.93451795 112.05180472 129.94062566 108.22985214 129.94665581 C99.2096814 129.96068259 90.18960541 129.95915503 81.16943359 129.94775391 C71.88135906 129.93627319 62.5935733 129.9503518 53.30553681 129.97715038 C45.31373715 129.99934078 37.32202792 130.00593728 29.33019966 130.00007397 C24.5646475 129.99671134 19.79928043 129.99907327 15.03375435 130.016325 C10.55119948 130.03184551 6.06907093 130.02778226 1.58653259 130.00901985 C-0.05246972 130.00534813 -1.69150399 130.00840087 -3.33047676 130.01890564 C-13.12340512 130.07684974 -22.19500651 129.92898369 -30.22485352 123.57202148 C-30.74047852 122.93006836 -31.25610352 122.28811523 -31.78735352 121.62670898 C-32.59172852 120.67151367 -32.59172852 120.67151367 -33.41235352 119.69702148 C-36.89759348 114.13251904 -37.08081321 108.74702728 -37.06201172 102.39453125 C-37.06712265 101.49781708 -37.07223358 100.60110291 -37.07749939 99.67721558 C-37.09135668 96.72411353 -37.0904416 93.77124586 -37.08813477 90.81811523 C-37.09202365 88.7583762 -37.09635872 86.69863796 -37.10112 84.63890076 C-37.10857378 80.32580971 -37.10829689 76.01280054 -37.10302734 71.69970703 C-37.09723212 66.18062052 -37.11416922 60.66186953 -37.13737202 55.14283848 C-37.1521239 50.89025421 -37.15297909 46.63775051 -37.14986229 42.38514519 C-37.15037471 40.35063957 -37.15559754 38.31612936 -37.16567421 36.28164864 C-37.17805017 33.4336394 -37.17124001 30.58628056 -37.15966797 27.73828125 C-37.16731171 26.90325577 -37.17495544 26.06823029 -37.18283081 25.207901 C-37.1162791 17.77436622 -34.95007389 11.67424969 -29.74912167 6.19310856 C-21.57212624 -0.85694299 -10.12954803 -0.06593167 0 0 Z " fill="#F8F8F8" transform="translate(161.787353515625,238.498291015625)"/>
<path d="M0 0 C10.06112401 9.62447486 16.23875649 21.07775904 16.72827148 35.09716797 C16.79606872 43.76454969 16.36140947 51.47252894 12.1875 59.25 C11.75179687 60.1059375 11.31609375 60.961875 10.8671875 61.84375 C4.24031717 73.86626886 -6.53662494 82.7754976 -19.7421875 86.7421875 C-33.93019672 90.22226523 -48.087171 88.59495693 -60.6875 81 C-72.226906 72.99686358 -80.41766411 62.40811696 -83.3828125 48.4609375 C-85.67918872 31.30074432 -82.19843593 19.22339052 -72.625 5 C-52.22655263 -14.94514854 -22.82174476 -19.27169557 0 0 Z " fill="#F4F4F4" transform="translate(208.8125,139.75)"/>
<path d="M0 0 C1.25683594 0.93972656 1.25683594 0.93972656 2.5390625 1.8984375 C10.31822762 8.54159755 15.43591286 19.97230116 17 30 C18.1026072 46.34027718 14.80989387 59.4501063 4.12109375 72.25 C-5.74115382 82.76973074 -18.62588812 88.01656574 -33 88.5 C-47.93169198 87.98165459 -60.9064375 82.17003966 -71.15234375 71.29296875 C-81.53409833 58.40905768 -84.56615933 45.1607388 -83 29 C-81.43320799 20.53755279 -78.24811386 13.76730471 -73 7 C-71.9171875 5.4840625 -71.9171875 5.4840625 -70.8125 3.9375 C-62.47218873 -5.65920431 -50.73027416 -11.02475425 -38.34375 -12.8125 C-23.45738604 -13.64724938 -11.30428252 -9.56354885 0 0 Z " fill="#F4F4F4" transform="translate(320,140)"/>
<path d="M0 0 C2.48692376 2.48692376 2.25068395 3.960851 2.29327393 7.35588074 C2.29236755 8.10138687 2.29146118 8.84689301 2.29052734 9.61499023 C2.29724457 10.40050262 2.30396179 11.18601501 2.31088257 11.99533081 C2.32992758 14.59981559 2.33378994 17.20404361 2.3359375 19.80859375 C2.34236067 21.61458951 2.34908866 23.42058422 2.35610962 25.22657776 C2.36809849 29.01541558 2.37178877 32.80416212 2.37060547 36.59301758 C2.37040213 41.45357395 2.39771207 46.31354658 2.43214989 51.1739645 C2.45436148 54.90483806 2.45844479 58.63556984 2.45738602 62.36650276 C2.45975035 64.15871252 2.46862045 65.95092571 2.48405075 67.7430706 C2.50359638 70.24767086 2.49791872 72.75099546 2.48583984 75.25561523 C2.49707886 75.99909714 2.50831787 76.74257904 2.51989746 77.5085907 C2.47995597 80.75943502 2.39618357 82.55113534 0.20401001 85.0348053 C-2.93699483 86.410335 -5.03880802 85.46031791 -8.1328125 84.2734375 C-19.7197496 79.12719568 -30.82923338 72.97801284 -42 67 C-42.16788825 60.82544314 -42.32841916 54.65075498 -42.48217773 48.47583008 C-42.53549993 46.37584302 -42.59082137 44.27590571 -42.64819336 42.17602539 C-42.73037757 39.1552198 -42.80533672 36.13430741 -42.87890625 33.11328125 C-42.90594131 32.17664139 -42.93297638 31.24000153 -42.96083069 30.27497864 C-43.1636585 21.3879086 -43.1636585 21.3879086 -42 18 C-39.78975209 16.46416893 -37.8382904 15.33610873 -35.4375 14.1875 C-34.77580811 13.85347168 -34.11411621 13.51944336 -33.43237305 13.17529297 C-32.02428762 12.46720261 -30.61210196 11.76721723 -29.19628906 11.07470703 C-26.98411443 9.99222674 -24.78403904 8.88809173 -22.5859375 7.77734375 C-18.73271042 5.8335729 -14.86816376 3.913865 -11 2 C-9.89591797 1.40058594 -9.89591797 1.40058594 -8.76953125 0.7890625 C-5.8458113 -0.51467134 -3.13748224 -0.23240609 0 0 Z " fill="#EDEDED" transform="translate(391,261)"/>
<path d="M0 0 C0.66 0.33 1.32 0.66 2 1 C-1.75 4 -1.75 4 -4 4 C-4.27070313 4.58523437 -4.54140625 5.17046875 -4.8203125 5.7734375 C-5.99141283 7.98379242 -7.25775577 9.72285264 -8.875 11.625 C-9.36742187 12.21539062 -9.85984375 12.80578125 -10.3671875 13.4140625 C-12.13555625 15.13166468 -13.75544221 16.00948664 -16 17 C-16.66 17.33 -17.32 17.66 -18 18 C-14.42171519 9.5422359 -7.3065716 5.04166236 0 0 Z " fill="#737373" transform="translate(263,133)"/>
<path d="M0 0 C-2.42108679 5.20935262 -5.66780543 9.83390272 -10.875 12.4375 C-11.926875 12.7159375 -11.926875 12.7159375 -13 13 C-11.43638038 9.16202456 -8.97489917 6.8332373 -6 4 C-5.278125 3.236875 -4.55625 2.47375 -3.8125 1.6875 C-2 0 -2 0 0 0 Z " fill="#8C8C8C" transform="translate(147,137)"/>
</svg>
