<svg xmlns="http://www.w3.org/2000/svg" width="163.935" height="105.99" viewBox="105.822 163.3 163.935 105.99"><g data-name="Group 26"><path d="M0 0h163.935v1.198H0V0z" fill="#85848b" fill-rule="evenodd" style="--darkreader-inline-fill:#434546" transform="translate(105.822 268.092)" data-name="Rectangle 12"/><path d="M791.184 650.096c0 .922-5.372 3.608-11.752 3.608-6.38 0-11.352-2.686-11.352-3.608 0-.921 5.171-.624 11.558-.624s11.546-.299 11.546.624Z" fill="#504f60" fill-rule="evenodd" style="--darkreader-inline-fill:#797775" transform="translate(-555.482 -403.157)" data-name="Path 19"/><path d="M791.184 653.72c0 .921-5.372 3.608-11.752 3.608-6.38 0-11.352-2.687-11.352-3.608" fill-rule="evenodd" style="--darkreader-inline-fill:#a2a1a0" transform="translate(-555.482 -406.781)" data-name="Path 20"/><path d="M502.205 532.232c1.036.133 2.11.217 3.102-.104.156-.049.328-.157.312-.313a.378.378 0 0 0-.07-.156 9.646 9.646 0 0 1-.937-1.785.156.156 0 0 0-.058-.081.147.147 0 0 0-.1 0c-.457.12-.853.415-1.307.542a1.86 1.86 0 0 1-.712.053c-.206-.024-.488-.194-.675-.172.106.682.365 1.32.445 2.016Z" fill="#4956ff" fill-rule="evenodd" style="--darkreader-inline-fill:#52637e" transform="translate(-330.759 -302.203)" data-name="Path 21"/><path d="M623.857 515.252c.683-.468 1.39-.96 1.793-1.683a.292.292 0 0 0 .048-.146.3.3 0 0 0-.057-.14 5.803 5.803 0 0 0-1.458-1.573 4.252 4.252 0 0 0-.812.75c-.172.18-.646.468-.651.745 0 .156.181.337.266.468.113.169.221.34.324.516.06.086.602 1.029.547 1.063Z" fill="#4956ff" fill-rule="evenodd" style="--darkreader-inline-fill:#52637e" transform="translate(-432.826 -286.952)" data-name="Path 22"/><path d="M473.427 540.346a.695.695 0 0 1-.125.453.614.614 0 0 1-.263.156c-1.447.519-3.123-.128-4.568.383-.297.105-.578.256-.876.356a4.765 4.765 0 0 1-1.094.194c-.51.048-1.024.08-1.537.093a3.7 3.7 0 0 1-1.159-.101 1.391 1.391 0 0 1-.888-.705.677.677 0 0 1-.044-.501.54.54 0 0 1 .095-.156c.098-.11.213-.203.34-.277l.533-.343c.25-.177.521-.32.808-.428.21-.069.434-.099.648-.156.748-.219 1.32-.813 1.85-1.383l.726-.773a.73.73 0 0 1 .251-.201.696.696 0 0 1 .312-.03c.705.05 1.384.278 1.976.662.152.114.315.21.488.288.424.165.97.04 1.362-.17.185-.1.145-.155.223-.333.078-.178.269-.292.434-.13a.46.46 0 0 1 .103.197c.156.515.097 1.07.097 1.61a.708.708 0 0 0 .031.25c.04.082.088.159.142.231.012.02.022.04.03.06.096.239.132.498.105.754Z" fill="#514e7f" fill-rule="evenodd" style="--darkreader-inline-fill:#72706d" transform="translate(-297.921 -308.225)" data-name="Path 23"/><path d="M473.427 554.749a.695.695 0 0 1-.125.453.614.614 0 0 1-.263.156c-1.447.519-3.123-.128-4.568.383-.297.104-.578.256-.876.356a4.766 4.766 0 0 1-1.094.194c-.51.048-1.024.08-1.537.093-.389.028-.78-.006-1.159-.101a1.391 1.391 0 0 1-.888-.705.676.676 0 0 1-.044-.501.54.54 0 0 1 .095-.156c.085.176.145.41.199.495.145.253.392.43.677.489.212.013.424-.014.625-.08 1.312-.325 2.707-.33 3.967-.821.433-.17.845-.397 1.3-.5.455-.103.937-.075 1.406-.114.74-.06 1.457-.283 2.186-.4.095.241.128.502.099.759Z" fill="#464353" fill-rule="evenodd" style="--darkreader-inline-fill:#7f7e7b" transform="translate(-297.921 -322.628)" data-name="Path 24"/><path d="M606.923 520.27c-.069.549-.417 1.022-.8 1.424-.382.401-.815.762-1.12 1.224-.374.573-.543 1.284-1.03 1.768a2.829 2.829 0 0 1-.625.445c-.255.15-.524.275-.804.37-.728.233-1.512.18-2.273.124a2.043 2.043 0 0 1-.722-.139 2.18 2.18 0 0 1-.3-.184 1.432 1.432 0 0 1-.468-.469.468.468 0 0 1-.045-.34.8.8 0 0 1 .217-.332c.17-.178.355-.343.55-.495.267-.172.508-.383.715-.624.127-.191.22-.403.276-.625.11-.39.178-.79.202-1.195-.001-.269.027-.537.083-.8.115-.412.421-.78.387-1.207a.301.301 0 0 1 .016-.183.254.254 0 0 1 .143-.089c.239-.095.49-.154.747-.173a.87.87 0 0 1 .693.272c.107.128.177.312.333.362a.527.527 0 0 0 .237.01c.385-.04.79-.088 1.094-.337.283-.254.447-.614.453-.995 0-.142-.064-.29.156-.312.165-.022.297.156.381.266.305.407.617.834.731 1.33a.395.395 0 0 1 .139-.026.605.605 0 0 1 .498.254c.125.202.173.441.136.675Z" fill="#514e7f" fill-rule="evenodd" style="--darkreader-inline-fill:#72706d" transform="translate(-412.576 -292.064)" data-name="Path 25"/><path d="M607.242 528.633c-.069.55-.417 1.023-.8 1.424-.382.402-.815.762-1.12 1.225-.374.573-.543 1.284-1.03 1.768a2.83 2.83 0 0 1-.625.445c-.255.15-.524.274-.804.37-.728.233-1.512.18-2.273.123a2.045 2.045 0 0 1-.722-.139 2.176 2.176 0 0 1-.3-.184 1.431 1.431 0 0 1-.468-.468c.146-.07.306-.11.469-.113.337.019.584.337.907.436.46.139.92-.186 1.387-.297.305-.072.625-.053.926-.156a2.29 2.29 0 0 0 .686-.416 3.49 3.49 0 0 0 .732-.706 4.54 4.54 0 0 0 .43-.857c.247-.575.537-1.13.868-1.662.05-.084.109-.162.177-.231.073-.067.156-.114.239-.173.312-.236.442-.625.551-1.006.03-.116.071-.229.124-.336a.604.604 0 0 1 .498.255.992.992 0 0 1 .148.698Z" fill="#464353" fill-rule="evenodd" style="--darkreader-inline-fill:#7f7e7b" transform="translate(-412.895 -300.427)" data-name="Path 26"/><path d="M438.249 201.15c.388.29.708.664.937 1.093.219.428 1.479 3.748 1.406 4.231.41-.414 2.03-.481 2.446-.895.173-.173 1.109-1.039 1.25-1.24.14-.202 1.183-.625 1.297-.837.426-.764-3.024-3.658-2.582-4.413a.197.197 0 0 0 .036-.118.194.194 0 0 0-.058-.093c-.282-.288-.657-.468-.998-.682-.34-.214-.668-.512-.76-.906-.325.15-.623.351-.883.597a67.368 67.368 0 0 0-1.866 1.66c-.24.222-.702.517-.813.834-.13.34.36.583.588.768Z" fill="#a1616a" fill-rule="evenodd" style="--darkreader-inline-fill:#635457" transform="translate(-276.654 -21.642)" data-name="Path 27"/><path d="M453.816 214.13c-.53.356-1.024.76-1.477 1.209-.428.423-.834.914-.938 1.506-.043.232-.037.468-.073.704-.156 1.023-1.04 1.773-1.43 2.73a4.741 4.741 0 0 0-.249.914c-.11.592-.17 1.191-.18 1.793-.009.583.563.984.772 1.528.21.543.265 1.102.372 1.66.2 1.053.567 2.068.937 3.077.77 2.127 3.266 8.008 4.036 10.137 2.36-.592 8.642-1.953 10.732-3.2.696-.416-4.834-5.103-4.09-5.427a.278.278 0 0 0 .21-.392c-.745-3.258-3.075-5.935-4.133-9.107-.367-1.101-1.026-2.042-1.526-3.088-.453-.948-.695-1.996-1.237-2.898a1.828 1.828 0 0 0-.395-.492 2.33 2.33 0 0 0-.436-.264c-.31-.15-.596-.238-.895-.39Z" fill="#514e7f" fill-rule="evenodd" style="--darkreader-inline-fill:#72706d" transform="translate(-286.636 -35.851)" data-name="Path 28"/><path d="M0 3.594a3.694 3.694 0 1 1 0 .1z" fill="#a1616a" fill-rule="evenodd" style="--darkreader-inline-fill:#635457" transform="translate(158.026 171.75)" data-name="Ellipse 5"/><path d="M466.4 205.317a1.239 1.239 0 0 1 1.389-.2c.25.13.468.392.412.667l1.832.028c.292-.008.583.019.868.08.288.062.544.223.725.454.022.03.047.066.085.07.03.001.06-.009.084-.027.282-.142.6-.196.912-.157.99.064 1.906.56 2.682 1.178.14.096.248.232.312.389.064.208-.012.469.156.617 0 1.718.59 3.324.984 4.998.07.298.357.562.555.797.245.26.445.558.592.884.334.868-.127 1.89.198 2.761.138.369.403.672.625.992.292.37.477.813.534 1.28.014.21-.012.42 0 .626.021.281.073.56.156.829.134.504.273 1.007.419 1.51.237.812.547 1.689 1.274 2.121-1.757.299-3.61.59-5.284-.02a2.74 2.74 0 0 1-.659-.33c-.604-.43-.896-1.168-1.157-1.864-.29-.781-.586-1.576-.645-2.407 0-.265-.037-.528-.111-.781-.17-.453-.625-.727-1.037-.978a4.98 4.98 0 0 1-1.25-.972 1.942 1.942 0 0 1-.506-1.458c.032-.258.133-.506.142-.766.01-.259-.106-.556-.354-.625-1.28-.387-1.89-1.902-2.174-3.208a10.3 10.3 0 0 1-.164-2.046l-.017-1.332a1.759 1.759 0 0 1-.575-1.264 1.5 1.5 0 0 0-.008-.418 1.154 1.154 0 0 0-.294-.445 3.972 3.972 0 0 1-.701-.983Z" fill="#464353" fill-rule="evenodd" style="--darkreader-inline-fill:#7f7e7b" transform="translate(-300.922 -28.138)" data-name="Path 29"/><path d="M439.82 228.198c-.042.413.052.836-.04 1.24-.036.157-.099.313-.144.458a2.687 2.687 0 0 0 .17 1.739c.249.539.546 1.054.89 1.538.115.166.21.344.283.533.06.198.096.401.11.607.09.827.235 1.648.434 2.456.175.7 2.162 6.682 2.624 7.236a.59.59 0 0 0 .356.242.648.648 0 0 0 .303-.062l.937-.36a.613.613 0 0 0 .217-.118.56.56 0 0 0 .135-.369c.067-.762-1.925-6.786-2.178-7.507-.765-2.174-1.783-4.27-2.282-6.52-.139-.625-.212-1.587-.67-2.086-.189-.206-.125-.118-.351-.01-.115.05-.225.107-.331.173a1.084 1.084 0 0 0-.463.81Z" fill="#464353" fill-rule="evenodd" style="--darkreader-inline-fill:#7f7e7b" transform="translate(-278.277 -46.796)" data-name="Path 30"/><path d="M458.223 226.003c.252 1.33.511 2.655.769 3.984l3.667-.96c.03-.384-.175-.74-.312-1.094-.335-.838-.342-1.772-.613-2.634-.204-.656-.56-1.26-.752-1.92-.111-.384-.168-.781-.277-1.17a8.5 8.5 0 0 0-.431-1.117 6.99 6.99 0 0 0-.8-1.482c-.468.175-.968.378-1.235.801a1.73 1.73 0 0 0-.228.781c-.064.823.234 1.651.136 2.47-.102.78-.076 1.57.076 2.34Z" fill="#773aed" fill-rule="evenodd" style="--darkreader-inline-fill:#4a3c65" transform="translate(-293.835 -40.475)" data-name="Path 32"/><path d="M477.2 330.907c.207.78-.091 1.602-.335 2.375a18.412 18.412 0 0 0-.747 3.577 3.096 3.096 0 0 1-.184.905c-.116.26-.312.48-.447.729-.368.653-.359 1.45-.28 2.196.054.492.133.982.232 1.467.12.592.269 1.21.095 1.788.29-.064.487.312.469.608-.019.295-.114.624.028.879.36.131.362.625.351 1.007.006.664.09 1.325.25 1.968.544 2.614 1.12 5.22 1.73 7.82 1.32.409 2.862.835 4.121.268.234-.105.469-.272.522-.525a.915.915 0 0 0-.05-.403l-.597-2.17c-.145-.526-.29-1.068-.214-1.606.058-.402.233-.834.036-1.189-.067-.122-.173-.217-.251-.333-.313-.457-.149-1.07-.124-1.624.01-.125.002-.25-.025-.372a1.856 1.856 0 0 0-.178-.408 6.234 6.234 0 0 1-.687-3.101.767.767 0 0 0-.055-.405 1.307 1.307 0 0 1-.101-.166.453.453 0 0 1 .033-.298 2.733 2.733 0 0 1-.482-.469.673.673 0 0 0 .116-1.052.351.351 0 0 0 .167-.605c-.076-.053-.178-.076-.232-.156-.085-.115-.016-.276.053-.4l.364-.657c.271-.49.332-1.094.624-1.562.419-.683.692-1.443.962-2.196l1.052-2.9.707.613c.236.18.433.405.581.662.1.254.164.522.19.794.258 1.574 1.249 2.94 1.616 4.49.081.345.136.708.334 1.003.071.09.135.187.19.287.052.154.08.315.08.477.066.642.408 1.223.937 1.593.349.239.781.403.97.78.038.118.09.23.156.334.17.203.533.226.605.48.04.143-.034.313.045.438a.414.414 0 0 0 .174.13l1.016.507c1.138.569 1.719 1.875 2.557 2.826.29.31.546.649.766 1.012.362.648.53 1.462 1.141 1.874.165.086.315.197.444.33.192.253.122.607.139.926.017.319.26.698.564.601a2.223 2.223 0 0 0 0 1.18 5.936 5.936 0 0 0 3.602-1.46c.296-.259.582-.59.585-.983a.353.353 0 0 0-.043-.196.558.558 0 0 0-.23-.173c-.951-.515-1.237-1.71-1.718-2.68-.42-.856-1.042-1.593-1.562-2.388-1.13-1.71-1.902-3.78-3.613-4.91-.376-.248-.813-.468-1.002-.879-.105-.23-.118-.492-.2-.73-.083-.237-.282-.468-.535-.468.141-.343.113-.762.122-1.134.01-.165-.01-.33-.056-.489a2.382 2.382 0 0 0-.251-.484 4.645 4.645 0 0 1-.644-2.499c.013-.451.092-.917-.044-1.348-.068-.217-.189-.415-.271-.625a3.904 3.904 0 0 1-.196-1.174l-.093-1.501a7.383 7.383 0 0 0-.194-1.484c-.312-1.165-.625-6.046-1.695-6.596-1.07-.55-2.908 3.207-4.112 3.28a5.357 5.357 0 0 0-1.562.302c-.801.3-1.473.859-2.128 1.405l-2.214 1.86c-.469.386-.856.755-1.373 1.027Z" fill="#464353" fill-rule="evenodd" style="--darkreader-inline-fill:#292a2b" transform="translate(-308.316 -127.698)" data-name="Path 33"/><path d="M415.075 164.046c.487-.666 1.324-1.019 2.149-1.049.824-.03 1.637.23 2.375.597.219.124.452.22.694.284.39.08.825-.026 1.178.157.468.248.559.88.518 1.405-.04.525-.139 1.108.14 1.562.1.13.19.266.271.408.12.27.05.583-.022.868-.183-.156-.286-.392-.448-.573-.163-.181-.445-.303-.647-.167-.201.136-.198.383-.21.604-.01.222-.066.488-.276.56a.448.448 0 0 1-.468-.183c-.358-.437-.214-1.136-.569-1.576-.201-.25-.537-.372-.723-.634-.147-.206-.184-.469-.312-.69-.128-.222-.427-.385-.625-.232a.844.844 0 0 0-.167.224.96.96 0 0 1-1.14.343 1.908 1.908 0 0 0-.494-.214.61.61 0 0 0-.564.313 1.22 1.22 0 0 0-.156.652c0 .313.056.646-.122.895a.926.926 0 0 1-.25.238c-.26.167-.624.28-.865.089a.65.65 0 0 1-.194-.606c.047-.218.109-.431.185-.64.137-.485-.043-1.03.107-1.486.158-.41.37-.798.635-1.15Z" fill="#464353" fill-rule="evenodd" style="--darkreader-inline-fill:#7f7e7b" transform="translate(-256.82 7.297)" data-name="Path 34"/><path d="M432.757 204.31a.569.569 0 0 0 .034.34c.047.073.11.133.184.176a3.79 3.79 0 0 0 1.74.564.53.53 0 0 1 .24.063c.148.096.157.312.102.484a1.26 1.26 0 0 0-.11.515c.045.327.432.469.759.517.457.058.959.028 1.321-.257.245-.224.433-.505.545-.817.897-2.06 1.21-4.338 2.118-6.392.069-.134.115-.278.136-.428a.422.422 0 0 0-.169-.393c-.168-.105-.43-.046-.545-.21-.056-.082-.05-.195-.1-.282-.104-.186-.38-.156-.567-.264-.147-.078-.248-.24-.412-.27a.519.519 0 0 0-.426.184c-.533.497-.813 1.201-1.11 1.866a21.877 21.877 0 0 1-1.586 2.943c.07-.11-.338-.937-.497-.973-.28-.056-.637.434-.789.617a3.93 3.93 0 0 0-.868 2.018Z" fill="#773aed" fill-rule="evenodd" style="--darkreader-inline-fill:#4a3c65" transform="translate(-272.524 -21.95)" data-name="Path 35"/><path d="M459.742 200.32a.748.748 0 0 0-.58.29c-.167.218-.2.505-.242.781a6.786 6.786 0 0 1-.92 2.471" fill-rule="evenodd" style="--darkreader-inline-fill:#a2a1a0" transform="translate(-293.834 -24.198)" data-name="Path 36"/><path d="M465.036 204.31a.892.892 0 0 0-.758.454 2.554 2.554 0 0 0-.19.772 4.235 4.235 0 0 1-.758 1.623" fill-rule="evenodd" style="--darkreader-inline-fill:#a2a1a0" transform="translate(-298.331 -27.565)" data-name="Path 37"/><path d="M239.841 360.244v-1.94a5.385 5.385 0 0 0-5.385-5.384h-76.61a5.386 5.386 0 0 0-5.386 5.384v3.577l87.381-1.637Z" fill="#33323d" fill-rule="evenodd" style="--darkreader-inline-fill:#1f1f20" transform="translate(-36.017 -152.963)" data-name="Path 38"/><path d="M323.362 273.752s-.219 13.567 2.187 18.031c2.405 4.464 3.436 23.883 3.436 23.883s25.216 2.609 42.787-3.124c17.572-5.732 54.96-8.076 54.96-8.076l-6.3-42.467s-31.127-1.996-48.835 6.449c-17.707 8.445-48.235 5.304-48.235 5.304Z" fill="#8dd070" fill-rule="evenodd" style="--darkreader-inline-fill:#45503c" transform="translate(-180.22 -76.07)" data-name="Path 39"/><path d="M323.362 273.752s-.219 13.567 2.187 18.031c2.405 4.464 3.436 23.883 3.436 23.883s25.216 2.609 42.787-3.124c17.572-5.732 54.96-8.076 54.96-8.076l-6.3-42.467s-31.127-1.996-48.835 6.449c-17.707 8.445-48.235 5.304-48.235 5.304Z" fill-rule="evenodd" style="--darkreader-inline-fill:#000000" transform="translate(-180.22 -76.07)" data-name="Path 40"/><path d="M358.282 294.908s-.79 11.194 1.19 14.77c1.979 3.577 2.07 19.545 2.07 19.545s22.694 1.053 38.836-4.442c16.143-5.495 50.064-9.06 50.064-9.06l-3.854-34.729s-28.068-.289-44.45 7.446c-16.38 7.735-43.856 6.47-43.856 6.47Z" fill="#8dd070" fill-rule="evenodd" style="--darkreader-inline-fill:#45503c" transform="translate(-209.56 -92.27)" data-name="Path 41"/><path d="M0 12.536a5.892 12.636 0 1 1 0 .1z" fill-rule="evenodd" style="--darkreader-inline-fill:#a2a1a0" transform="rotate(-7.101 1718.153 -1376.87)" data-name="Ellipse 6"/><path d="M355.98 130.66s-30.24 7.653-44.5 21.125c-14.26 13.471-44.28 19.85-44.28 19.85s3.955 12.978 7.613 16.49c3.658 3.51 10.596 21.679 10.596 21.679s24.798-5.258 39.761-16.11c14.964-10.852 49.837-24.558 49.837-24.558L355.98 130.66Z" fill-rule="evenodd" style="--darkreader-inline-fill:#000000" transform="translate(-132.835 34.581)" data-name="Path 42"/><path d="M264.29 159.204s3.953 12.98 7.608 16.49c3.655 3.512 10.596 21.678 10.596 21.678s24.802-5.256 39.766-16.108c14.965-10.852 49.835-24.553 49.835-24.553l-19.026-38.481s-30.238 7.653-44.499 21.125c-14.26 13.471-44.28 19.849-44.28 19.849Z" fill="#8dd070" fill-rule="evenodd" style="--darkreader-inline-fill:#45503c" transform="translate(-130.38 45.07)" data-name="Path 43"/><path d="M264.29 159.204s3.953 12.98 7.608 16.49c3.655 3.512 10.596 21.678 10.596 21.678s24.802-5.256 39.766-16.108c14.965-10.852 49.835-24.553 49.835-24.553l-19.026-38.481s-30.238 7.653-44.499 21.125c-14.26 13.471-44.28 19.849-44.28 19.849Z" fill-rule="evenodd" style="--darkreader-inline-fill:#000000" transform="translate(-130.38 45.07)" data-name="Path 44"/><path d="M308 181.844s2.685 10.898 5.667 13.694c2.981 2.795 7.965 17.962 7.965 17.962s21.92-5.964 35.598-16.147c13.678-10.184 44.872-23.971 44.872-23.971L387.778 141.5s-26.801 8.336-40.02 20.725C334.54 174.615 308 181.845 308 181.845Z" fill="#8dd070" fill-rule="evenodd" style="--darkreader-inline-fill:#45503c" transform="translate(-167.263 25.435)" data-name="Path 45"/><path d="M0 12.536a5.892 12.636 0 1 1 0 .1z" fill-rule="evenodd" style="--darkreader-inline-fill:#a2a1a0" transform="rotate(-24.97 529 -293.757)" data-name="Ellipse 7"/><path d="M241.935 382.652v53.886a4.66 4.66 0 0 1-4.661 4.66h-80.126a4.66 4.66 0 0 1-4.658-4.66V377.22c2.296.853 2.296.853 4.658.78h80.126a4.66 4.66 0 0 1 4.66 4.652Z" fill-rule="evenodd" style="--darkreader-inline-fill:#000000" transform="translate(-36.042 -173.468)" data-name="Path 46"/><path d="M241.935 387.034v53.886a4.66 4.66 0 0 1-4.661 4.66h-80.126a4.66 4.66 0 0 1-4.658-4.66V381.6c2.296.851 2.296.851 4.658.781h80.126a4.66 4.66 0 0 1 4.66 4.653Z" fill="#504f60" fill-rule="evenodd" style="--darkreader-inline-fill:#303132" transform="translate(-36.042 -177.164)" data-name="Path 47"/><path d="M586.85 543.936v17.232h-16.713a8.617 8.617 0 1 1 0-17.233h16.713Z" fill-rule="evenodd" style="--darkreader-inline-fill:#a2a1a0" transform="translate(-381.185 -314.143)" data-name="Path 48"/><path d="M588.31 541v17.236h-16.713a8.617 8.617 0 0 1 0-17.233L588.31 541Z" fill="#33323d" fill-rule="evenodd" style="--darkreader-inline-fill:#888785" transform="translate(-382.417 -311.667)" data-name="Path 49"/><path d="M0 3.26a3.36 3.36 0 1 1 0 .1z" fill-rule="evenodd" style="--darkreader-inline-fill:#a2a1a0" transform="translate(186.622 235.05)" data-name="Ellipse 8"/><path d="M0 3.26a3.36 3.36 0 1 1 0 .1z" fill="#773aed" fill-rule="evenodd" style="--darkreader-inline-fill:#4a3c65" transform="translate(186.85 234.594)" data-name="Ellipse 9"/><path d="M851.773 527.023c.133 1.438-.956 2.835-.638 4.244.068.301.198.585.245.89.13.837-.367 1.629-.844 2.329l-4.092 6.004c-.164.264-.36.506-.584.721-.781.697-1.956.625-2.983.833a5.098 5.098 0 0 0-2 .884.128.128 0 0 0-.018.175c.345.47.905.733 1.487.698.107.142 0 .35-.157.451-.22.157-.521.194-.565.566-.016.13.01.26.075.375.165.252.421.43.715.498 1.417.433 2.948-.328 4.008-1.364 1.06-1.035 1.821-2.343 2.862-3.397.576-.582 1.23-1.082 1.824-1.648 1.184-1.127 2.104-2.499 2.993-3.872.267-.414.535-.838.648-1.318.112-.48.059-.964.186-1.428.165-.609.61-1.093.98-1.604.727-1 1.211-2.222 1.116-3.453-.096-1.23-.86-2.448-2.021-2.866a1.796 1.796 0 0 0-1.133-.069c-.476.147-.828.54-1.153.917l-.78.898c-.195.197-.35.43-.454.687a.72.72 0 0 0 .157.764" fill="#fbbebe" fill-rule="evenodd" style="--darkreader-inline-fill:#8f7979" transform="translate(-616.871 -297.838)" data-name="Path 50"/><path d="M851.773 527.023c.133 1.438-.956 2.835-.638 4.244.068.301.198.585.245.89.13.837-.367 1.629-.844 2.329l-4.092 6.004c-.164.264-.36.506-.584.721-.781.697-1.956.625-2.983.833a5.098 5.098 0 0 0-2 .884.128.128 0 0 0-.018.175c.345.47.905.733 1.487.698.107.142 0 .35-.157.451-.22.157-.521.194-.565.566-.016.13.01.26.075.375.165.252.421.43.715.498 1.417.433 2.948-.328 4.008-1.364 1.06-1.035 1.821-2.343 2.862-3.397.576-.582 1.23-1.082 1.824-1.648 1.184-1.127 2.104-2.499 2.993-3.872.267-.414.535-.838.648-1.318.112-.48.059-.964.186-1.428.165-.609.61-1.093.98-1.604.727-1 1.211-2.222 1.116-3.453-.096-1.23-.86-2.448-2.021-2.866a1.796 1.796 0 0 0-1.133-.069c-.476.147-.828.54-1.153.917l-.78.898c-.195.197-.35.43-.454.687a.72.72 0 0 0 .157.764" fill-rule="evenodd" style="--darkreader-inline-fill:#a2a1a0" transform="translate(-616.871 -297.838)" data-name="Path 51"/><path d="M911.407 768.162c-.893.545-2.007.578-3.045.452-.168-.02-.366-.033-.469.097-.156.187.028.468.219.613.612.46 1.332.757 2.091.861.678.096 1.362.142 2.046.136 1.875.033 3.749.064 5.593-.205a.793.793 0 0 0 .313-.09.572.572 0 0 0 .231-.352c.127-.48-.117-.996-.486-1.33-.368-.335-.842-.52-1.304-.7l-1.624-.633c-.381-.148-.992-.542-1.406-.51-.778.056-1.514 1.283-2.159 1.661Z" fill="#3f3d56" fill-rule="evenodd" style="--darkreader-inline-fill:#807e7c" transform="translate(-673.408 -501.945)" data-name="Path 52"/><path d="M911.407 768.162c-.893.545-2.007.578-3.045.452-.168-.02-.366-.033-.469.097-.156.187.028.468.219.613.612.46 1.332.757 2.091.861.678.096 1.362.142 2.046.136 1.875.033 3.749.064 5.593-.205a.793.793 0 0 0 .313-.09.572.572 0 0 0 .231-.352c.127-.48-.117-.996-.486-1.33-.368-.335-.842-.52-1.304-.7l-1.624-.633c-.381-.148-.992-.542-1.406-.51-.778.056-1.514 1.283-2.159 1.661Z" fill-rule="evenodd" style="--darkreader-inline-fill:#a2a1a0" transform="translate(-673.408 -501.945)" data-name="Path 53"/><path d="M931.334 589.29c-.677.9-1.376 1.939-1.21 3.053.091.6.427 1.129.674 1.683.334.753.51 1.562.68 2.368.254 1.178.509 2.359.663 3.555.177 1.351-.653 5.26-.73 6.621-.018.328-.057.683-.285.919-.09.093-.208.168-.248.29a.496.496 0 0 0 .054.344c.381.859 1.16 1.5 2.03 1.865.87.365 2.968.996 3.917 1.029a.78.78 0 0 0 .368-.048.717.717 0 0 0 .284-.327c.68-1.3.027-5.92.036-7.386.01-1.223.299-2.438.245-3.66-.043-.98-.312-1.94-.4-2.917-.157-1.603.137-3.213.432-4.797.225-1.215.451-2.43.74-3.63.177-.733.381-1.471.781-2.107.312-.504.751-.926 1.115-1.406a6.345 6.345 0 0 0 1.25-4.645c-.022-.156-2.343.589-2.548.678a7.935 7.935 0 0 0-2.27 1.46c-.538.513-.961 1.197-1.431 1.77-.666.811-1.323 1.628-1.972 2.45-.74.94-1.465 1.887-2.175 2.839Z" fill="#464353" fill-rule="evenodd" style="--darkreader-inline-fill:#7f7e7b" transform="translate(-692.196 -344.637)" data-name="Path 54"/><path d="M931.334 588.983c-.677.9-1.376 1.94-1.21 3.052.091.601.427 1.13.674 1.685.334.751.51 1.562.68 2.366.254 1.18.509 2.36.663 3.555.177 1.353-.653 5.26-.73 6.621-.018.328-.057.684-.285.92-.09.092-.208.167-.248.29a.495.495 0 0 0 .054.343c.381.86 1.16 1.5 2.03 1.874.87.375 2.968.702 3.917.733a.78.78 0 0 0 .368-.049.706.706 0 0 0 .284-.325c.68-1.3.027-5.622.036-7.09.01-1.225.299-2.439.245-3.662-.043-.98-.312-1.94-.4-2.916-.157-1.604.137-3.214.432-4.798.225-1.214.451-2.429.74-3.63.177-.733.381-1.471.781-2.107.312-.504.751-.926 1.115-1.406a6.342 6.342 0 0 0 1.25-4.645c-.022-.156-2.343.589-2.548.678a7.974 7.974 0 0 0-2.27 1.462c-.538.51-.961 1.195-1.431 1.768-.666.811-1.323 1.629-1.972 2.452-.74.933-1.465 1.876-2.175 2.829Z" fill-rule="evenodd" style="--darkreader-inline-fill:#a2a1a0" transform="translate(-692.196 -344.384)" data-name="Path 55"/><path d="M0 3.69a3.79 3.79 0 1 1 0 .1z" fill="#fbbebe" fill-rule="evenodd" style="--darkreader-inline-fill:#8f7979" transform="translate(227.822 217.258)" data-name="Ellipse 10"/><path d="M892.156 483.032a4.91 4.91 0 0 0 3.147 2.196l-.286 1.039c-.494 1.783-1.048 3.67-2.426 4.907.156-.604-.044-1.25-.384-1.774-.34-.525-.818-.937-1.287-1.345l-2.182-1.89a.656.656 0 0 1-.156-.184.553.553 0 0 1 0-.416c.278-.865 1.071-1.405 1.718-1.99.325-.302.614-.639.864-1.005.435-.622.706.003.992.462Z" fill="#fbbebe" fill-rule="evenodd" style="--darkreader-inline-fill:#8f7979" transform="translate(-657.129 -262.143)" data-name="Path 56"/><path d="m852.745 447.127-.086-.712c.598.156 1.167-.353 1.55-.88.382-.526.737-1.146 1.32-1.366.707-.266 1.456.156 2.133.512.757.42 1.588.69 2.447.797.137.004.273.026.405.066.44.156.65.709.714 1.21.064.501.047 1.034.264 1.48.156.34.446.591.624.925.469.897.016 2.123.505 3.002l-1.215-1.113c-.111-.102-.267-.208-.39-.122-.098.069-.105.217-.144.336-.118.346-.552.45-.866.312-.314-.137-.543-.436-.78-.707-.538-.635-1.178-1.192-1.928-1.462a2.474 2.474 0 0 0-2.03.134c-.568.32-.983 1.067-1.678 1.093-.953.036-1.35-1.738-1.79-2.44a.859.859 0 0 0 .25-1.074c.064-.027.68-.1.695.01Z" fill="#464353" fill-rule="evenodd" style="--darkreader-inline-fill:#7f7e7b" transform="translate(-626.126 -229.89)" data-name="Path 57"/><path d="M551.018 316.818c-.305.27-.586.566-.842.884a1.77 1.77 0 0 0-.387 1.135c.001.12.04.236.109.333a.281.281 0 0 0 .312.095.42.42 0 0 0 .156-.137 7.56 7.56 0 0 1 .525-.569c.067-.067.156-.137.247-.112.04.014.077.038.106.07.105.09.182.21.22.344.055.238-.084.477-.242.665-.157.187-.343.367-.407.603a.267.267 0 0 0 0 .193.29.29 0 0 0 .122.104c.452.249.993.284 1.474.096.312-.126.59-.343.912-.456.14-.038.275-.09.403-.156a.837.837 0 0 0 .358-.536 2.21 2.21 0 0 0 .023-.657 7.562 7.562 0 0 0-.537-2.473.312.312 0 0 0-.09-.13.289.289 0 0 0-.157-.043c-.4-.042-1.056-.247-1.441-.098a1.019 1.019 0 0 0-.341.303c-.072.08-.523.437-.523.542Z" fill="#a1616a" fill-rule="evenodd" style="--darkreader-inline-fill:#635457" transform="translate(-371.286 -121.742)" data-name="Path 58"/><path d="M526.553 240.55c0-.38-.468-1.3.277-1.361 0-.408-.577-.661-.469-1.094.034-.143.156-.26.17-.407.047-.417-.706-.644-.58-1.044.046-.156.212-.246.248-.401.084-.36-.561-.522-.574-.892 0-.125.07-.242.064-.367 0-.156-.135-.275-.21-.41-.196-.35-.1-.888-.457-1.068.236.02.313-.33.216-.543-.097-.214-.295-.4-.297-.637a.966.966 0 0 0 0-.26c-.065-.228-.439-.246-.501-.468a1.994 1.994 0 0 1-.008-.256c-.025-.177-.206-.29-.376-.34a1.535 1.535 0 0 1-.503-.179c-.11-.083-.236-.22-.353-.156-.044.026-.066.076-.099.114-.14.164-.409.092-.585-.028-.522-.355-.781-.99-.892-1.61-.111-.62-.108-1.261-.247-1.875a4.003 4.003 0 0 0-.169-.562c-.06-.156-.25-.402-.262-.56-.028-.359.715-.113.998-.077.274.026.546.079.81.156.283.107.56.228.83.364 1.128.498 2.49.559 3.396 1.396.298.275.55.636.937.76.177.035.353.08.525.137.429.201.496.771.73 1.184.074.108.138.223.193.343.045.141.066.29.062.437l.033 1.083c.053 1.813.106 3.631-.088 5.434-.062.595-.156 1.207.02 1.779.048.156.113.303.157.46.039.186.058.374.06.563l.024.701a.219.219 0 0 1-.034.156.225.225 0 0 1-.19.046c-.975-.088-1.962-.638-2.884-.305" fill="#464353" fill-rule="evenodd" style="--darkreader-inline-fill:#7f7e7b" transform="translate(-346.948 -45.828)" data-name="Path 59"/><path d="M0 1.57a11.552 1.67 0 1 1 0 .1z" fill="#504f60" fill-rule="evenodd" style="--darkreader-inline-fill:#797775" transform="translate(212.603 245.27)" data-name="Ellipse 11"/><path d="M711.595 250.517c-.203-.87-.33-1.634-.33-1.634s.048-.947-.377-1.657v-1.988c.12-.317.269-.624.442-.916.312-.55 0-2.565 0-2.565s-1.167-2.84-.884-4.643c.283-1.803-2.396-8.004-2.396-8.004.016-.598.1-1.192.251-1.77.029-.122.04-.248.035-.373v-.045.014c-.041-1.188-.981-3.416-.981-3.416l.126-4.245s.6-2.499-.378-5.865a31.216 31.216 0 0 1-.7-2.836c-.015-.082-.03-.157-.043-.236 2.013-.313 3.552-.562 3.552-.562s-1.169-4.888-1.957-5.744c-.79-.856-1.42-3.544-1.42-3.544s-.411-3.45.253-4.459c.664-1.009.757-2.749.757-2.749s1.514-1.093 1.704-1.588c.19-.495.505-1.589.505-2.168 0-.58-.19-1.094-.127-1.406.063-.312-.442-1.467-.189-2.016a1.478 1.478 0 0 0 .1-.546 7.416 7.416 0 0 0-.132-1.433 4.069 4.069 0 0 0-1.5-.802l-.033-.13-.086-.344a1.666 1.666 0 0 0-.148-.088v-.125l-.014-.497.237-1.115c.469-1.94-2.122-2.229-2.122-2.229a1.367 1.367 0 0 0-.734-.643c-.52-.183-.086 2.918.156 3.124.183.156.748 1.121 1.021 1.6l.044.077a1.09 1.09 0 0 0-.119.125l.099.673.015.103c-.171.214-.31.451-.414.705 0 0 .469.518.38 1.093-.089.575.145 1.304.156 1.343-.028-.032-.36-.392-.693-.304-.333.087-1.262.367-1.262.367s-.694.122-.625.275c.069.153-.469.824-.469.824l-1.865-1.768c-.018-.053-.039-.106-.054-.156a4.304 4.304 0 0 1-.157-.78c.204-.049.403-.112.597-.19.196-.067.373-.18.516-.33.189-.224.225-.527.301-.805.147-.544.469-1.026.692-1.543.378-.874.5-1.837.351-2.778a1.812 1.812 0 0 0-.285-.812c-.305-.418-.858-.589-1.26-.923-.4-.334-.66-.845-1.129-1.093-.423-.227-.937-.2-1.415-.122-.933.154-1.83.48-2.644.962-.272.156-.572.348-.884.29-.269-.048-.469-.262-.637-.468a.156.156 0 0 1 .008-.025.153.153 0 0 1-.02-.025 3.294 3.294 0 0 0-.291 1.396c0 .075 0 .157.01.224V179.35a.358.358 0 0 1-.015.098.71.71 0 0 1-.175.252c-.057.065-.11.134-.156.208 0-.025.016-.05.025-.077a1.11 1.11 0 0 0-.194.589.601.601 0 0 0 .14.422c.094.09.196.172.305.243a3.557 3.557 0 0 0-.056.625 3.61 3.61 0 0 0 1.759 3.079c.022.051.042.104.062.156.24.625.419 1.359.34 2.03 0 .049-.015.099-.023.147-.007.048-.046.052-.067.078 0 0-3.081.031-3.806-.625-.725-.656-1.83 1.604-1.83 1.604s-1.105.214-1.327 0c-.222-.213-1.513-.03-1.513-.03a2.785 2.785 0 0 0-1.926-.702 5.653 5.653 0 0 0-1.406-.781l-.034-.013a1.574 1.574 0 0 0-.695-.087s-1.515-1.25-1.957-1.924c-.442-.675-2.546-3.166-2.556-3.177v-.12l-.023-.363c-.063.01-.126.015-.189.016-.011-.036-.027-.078-.042-.127a6.988 6.988 0 0 0-.447-1.026s0-.458.133-.573c.133-.116-.055-1.795-.055-1.795s-1.365-3.19-2.588-.809c0 0-2.312 1.542-.372 3.338 0 0 .781.375.884.672.072.192.335.73.511 1.093l.08.156-.022.019.028.3.013.115c-.366.208-.614.414-.553.569.107.264.181.542.22.825 0 0 2.683 3.36 3.03 4.796 0 0 7.196 4.277 9.562 4.581l-.419 2.132c-.06.579-.092 1.16-.093 1.742.031.458-.285 2.535-.285 2.535s-.41 3.055-.757 3.483c-.347.428-.284 2.26-.284 2.26a15.437 15.437 0 0 1-.469 2.596c-.347 1.16-.095 2.597-.095 2.597s-1.198 2.75 1.673.886c0 0 1.405-.087 3.033-.144v.156c0 .21 0 .436-.011.674-.022 1.574-.031 3.748.04 5.385.127 2.902 1.011 8.645 1.011 8.645v2.891a3.933 3.933 0 0 0-.084.825 5.367 5.367 0 0 0 .78 2.888l.222 1.924s.519 1.269.528 2.03c-.002.062-.009.123-.021.184a1.23 1.23 0 0 0-.025.295c-.03.875.496 2.967.496 2.967s.031 2.107.347 2.23c.27.106-.36 1.215-.548 1.533a.435.435 0 0 1-.011-.06l-.04.063c-.064.17-.098.352-.098.534-.036.294.1.582.35.74.6.368.922.672.413.794-.188.03-.373.068-.556.117 0-.023-.02-.048-.027-.07a.334.334 0 0 0-.208.369c.005.247.069.49.186.709.505 1.13.854 1.562.854 1.562l.243-.027a1.18 1.18 0 0 1-.141.261 1.005 1.005 0 0 1-.356.312c-.132.08-.28.13-.433.149-.346.011-.67.169-.893.434-.313.408-.512.962.11 1.45l2.256.78s3.883.505 3.677-.367a26.81 26.81 0 0 1-.331-1.633 3.444 3.444 0 0 0-.313-1.545 2.012 2.012 0 0 0-.137-.228l.137-.014s.285-1.926.663-2.292c.087-.084.107-.156.087-.2.04-.104-.06-.165-.187-.201l-.028.077a1.844 1.844 0 0 0-.377-.043s-.126-1.007.284-1.374a.389.389 0 0 0 .08-.3 1.607 1.607 0 0 0-.044-.41.206.206 0 0 1-.014.024c-.206-.915-.906-2.37-.906-2.37s-.03-.914.222-1.282c.253-.367-.033-4.979-.033-4.979s.096-2.229-.189-3.267c-.284-1.04.347-2.262.347-2.262v-.081l-.036-.352v.022c-.064-.59-.184-1.66-.273-2.154-.127-.703.033-4.06.033-4.06l.567-1.438 1.01 2.476 1.073 3.299s.531.696.544 1.405v.103a1.819 1.819 0 0 0-.013.22c-.019.417.096.83.327 1.177 0 0 .284 1.562.726 1.954.442.392.442 1.16.442 1.16s.536 2.262.781 2.656c.212.334.223 1.25.222 1.535v.081s.075.81.072 1.487v.242a2.353 2.353 0 0 1-.066.533l-.01.031c0-.039 0-.076.012-.114a5.74 5.74 0 0 0-.157 1.406c-.014.812.11 1.774.602 2.343.853.977 1.388.856 1.388.856s-.409 1.221-.915 1.466a.24.24 0 0 0-.053.035c0-.025-.01-.049-.013-.072a.595.595 0 0 0-.156.456c-.036.537.303 1.406.625 1.81.12.117.266.203.426.25a1.692 1.692 0 0 1-.253.131.91.91 0 0 1-.257.067c-.347.01-.673.168-.894.435-.312.406-.512.96.11 1.447l2.256.781s3.858.495 3.655-.374Z" fill-rule="evenodd" fill="url(&quot;#a&quot;)" transform="translate(-477.502 -3.496)" data-name="Path 60"/><path d="m796.847 640.343-2.186-.781c-.603-.488-.411-1.042-.107-1.45.212-.263.528-.421.866-.434.148-.019.29-.07.417-.148a.999.999 0 0 0 .346-.313c.16-.253.246-.545.249-.845 0 0 2.399-.703 3.055 0 .117.128.215.271.29.427a3.57 3.57 0 0 1 .313 1.544s.122.763.32 1.634c.198.872-3.563.366-3.563.366Z" fill="#2d293d" fill-rule="evenodd" style="--darkreader-inline-fill:#8a8987" transform="translate(-577.578 -391.88)" data-name="Path 61"/><path d="m865.287 633.426-2.186-.781c-.603-.487-.411-1.042-.107-1.448.21-.264.527-.423.864-.434a.81.81 0 0 0 .25-.067c.058-.025.114-.053.169-.083.61-.336.595-1.16.595-1.16s2.397-.704 3.055 0c.088.094.165.2.23.312.41.71.365 1.658.365 1.658s.122.764.312 1.634c.19.87-3.547.369-3.547.369Z" fill="#2d293d" fill-rule="evenodd" style="--darkreader-inline-fill:#8a8987" transform="translate(-635.329 -386.04)" data-name="Path 62"/><path d="M809.862 636.36c.117.127.215.271.29.427l-3.592.416c.16-.253.246-.545.248-.844 0 0 2.398-.702 3.054.001Z" fill-rule="evenodd" style="--darkreader-inline-fill:#a2a1a0" transform="translate(-587.952 -391.869)" data-name="Path 63"/><path d="M875.748 629.785v.673c-.559.92-3.262.718-4.048.258a1.66 1.66 0 0 0 .169-.083c.61-.336.595-1.16.595-1.16s2.397-.704 3.055 0c.088.095.165.2.23.312Z" fill-rule="evenodd" style="--darkreader-inline-fill:#a2a1a0" transform="translate(-642.918 -386.057)" data-name="Path 64"/><path d="M801.71 421.66c-.167.293-.31.6-.426.917v2.413c-.612 1.007-3.788.672-4.217.122-.43-.55-.878-1.98-.395-2.229.482-.248.885-1.467.885-1.467s-.52.122-1.344-.856c-.825-.977-.58-3.145-.427-3.664.153-.518 0-2.26 0-2.26s.031-1.223-.212-1.62c-.244-.396-.764-2.655-.764-2.655s0-.764-.428-1.16c-.428-.397-.703-1.956-.703-1.956a2.004 2.004 0 0 1-.305-1.313c.091-.764-.52-1.589-.52-1.589l-1.038-3.3-.978-2.474-.55 1.435s-.156 3.36-.03 4.061c.127.701.313 2.566.313 2.566s-.61 1.222-.336 2.26c.275 1.039.175 3.271.175 3.271s.275 4.61.03 4.978c-.246.367-.214 1.284-.214 1.284s1.25 2.686.856 3.053-.275 1.375-.275 1.375.854 0 .489.367c-.366.367-.642 2.291-.642 2.291l-3.694.433s-.338-.427-.827-1.562c-.488-1.136.091-1.008.583-1.13.492-.124.181-.427-.4-.794-.58-.367-.244-1.192-.244-1.192s.886-1.496.58-1.618c-.306-.122-.336-2.23-.336-2.23s-.61-2.5-.457-3.178c.153-.678-.49-2.29-.49-2.29l-.213-1.924a5.295 5.295 0 0 1-.672-3.636v-2.967s-.856-5.742-.978-8.644c-.078-1.859-.056-4.395-.031-5.978.016-.887.031-1.476.031-1.476l13.195-1.374s-.012.61.24 1.96c.135.725.346 1.664.677 2.837.947 3.36.367 5.863.367 5.863l-.123 4.247s1.16 2.84.917 3.817a8.148 8.148 0 0 0-.247 1.775s2.596 6.2 2.32 8.003c-.274 1.802.855 4.643.855 4.643s.31 2.015.003 2.565Z" fill="#464353" fill-rule="evenodd" style="--darkreader-inline-fill:#292a2b" transform="translate(-568.453 -180.834)" data-name="Path 65"/><path d="m852.05 509.806 4.017-.536s-2.275 2.323-4.017.536Z" fill-rule="evenodd" style="--darkreader-inline-fill:#a2a1a0" transform="translate(-626.337 -284.893)" data-name="Path 66"/><path d="M870.092 484.14s.138 1.421-.732 1.956c0 0 1.557-.244.732-1.956Z" fill-rule="evenodd" style="--darkreader-inline-fill:#a2a1a0" transform="translate(-640.943 -263.688)" data-name="Path 67"/><path d="M846.817 455.2s-3.358 2.765-4.58 2.535c-1.221-.23 4.58-2.535 4.58-2.535Z" fill-rule="evenodd" style="--darkreader-inline-fill:#a2a1a0" transform="translate(-617.914 -239.268)" data-name="Path 68"/><path d="M805.968 521s-2.55.58-2.627 1.604c-.076 1.025 2.627-1.604 2.627-1.604Z" fill-rule="evenodd" style="--darkreader-inline-fill:#a2a1a0" transform="translate(-585.235 -294.79)" data-name="Path 69"/><path d="M808.832 602.56s-3.603.672-2.58 1.13c1.023.457 2.704.824 2.704.824s1.163.06-.124-1.954Z" fill-rule="evenodd" style="--darkreader-inline-fill:#a2a1a0" transform="translate(-587.538 -363.612)" data-name="Path 70"/><g data-name="Group 24"><path d="M800.076 611.632a.71.71 0 0 1-.33-.522l-.037.064s-.336.825.245 1.19c.065.042.13.084.187.125.108-.02.224-.036.334-.064.492-.122.182-.426-.4-.793Z" fill-rule="evenodd" style="--darkreader-inline-fill:#a2a1a0" transform="translate(-582.09 -370.826)" data-name="Path 71"/><path d="M831.389 609.505c.1-.09.096-.325.036-.625-.157.236-.202.604-.205.884a.762.762 0 0 1 .169-.26Z" fill-rule="evenodd" style="--darkreader-inline-fill:#a2a1a0" transform="translate(-608.76 -368.945)" data-name="Path 72"/><path d="M827.434 515.59c-.133.361-.215.74-.244 1.123.07-.265.163-.523.28-.772l-.036-.351Z" fill-rule="evenodd" style="--darkreader-inline-fill:#a2a1a0" transform="translate(-605.36 -290.226)" data-name="Path 73"/><path d="M881.227 503.524a1.43 1.43 0 0 0 .033-.334 8.893 8.893 0 0 0-.1.625c.02-.096.042-.186.067-.29Z" fill-rule="evenodd" style="--darkreader-inline-fill:#a2a1a0" transform="translate(-650.9 -279.762)" data-name="Path 74"/><path d="M827.736 581.45c.05-.075.078-.329.09-.68a2.305 2.305 0 0 0-.176.857.814.814 0 0 1 .086-.178Z" fill-rule="evenodd" style="--darkreader-inline-fill:#a2a1a0" transform="translate(-605.748 -345.225)" data-name="Path 75"/><path d="M804.639 622c-.19.613-.33 1.24-.42 1.874l-3.694.427s-.338-.427-.827-1.562a2.84 2.84 0 0 1-.104-.269c-.222.102-.313.331-.02 1.001.49 1.131.829 1.562.829 1.562l3.694-.428s.275-1.924.64-2.291c.187-.177.072-.269-.098-.314Z" fill-rule="evenodd" style="--darkreader-inline-fill:#a2a1a0" transform="translate(-581.9 -380.015)" data-name="Path 76"/><path d="M786.315 424.244s.03 2.107.336 2.23c.156-.35.257-.68.12-.735-.313-.122-.336-2.23-.336-2.23s-.61-2.5-.458-3.177c.153-.678-.488-2.29-.488-2.29l-.214-1.924a5.295 5.295 0 0 1-.672-3.636v-2.968s-.856-5.742-.978-8.644c-.078-1.858-.056-4.395-.031-5.977 0-.286.01-.54.014-.753l-.105.01s-.017.588-.031 1.477c-.025 1.582-.048 4.119.031 5.976.122 2.902.976 8.645.976 8.645v2.968a5.298 5.298 0 0 0 .674 3.634l.212 1.925s.642 1.618.489 2.29c-.153.674.46 3.18.46 3.18Z" fill-rule="evenodd" style="--darkreader-inline-fill:#000000" transform="translate(-568.45 -187.745)" data-name="Path 77"/><path d="M867.476 623.621c-.3-.434-.5-.93-.585-1.451-.377.34.056 1.662.468 2.187.426.55 3.603.885 4.217-.124v-.58c-.832.816-3.697.488-4.1-.032Z" fill-rule="evenodd" style="--darkreader-inline-fill:#a2a1a0" transform="translate(-638.737 -380.159)" data-name="Path 78"/><path d="M898.828 609.25c-.168.294-.31.6-.428.917v.433c.07-.156.169-.366.312-.612.097-.24.143-.499.135-.758l-.02.02Z" fill-rule="evenodd" style="--darkreader-inline-fill:#a2a1a0" transform="translate(-665.447 -369.24)" data-name="Path 79"/><path d="M863.168 588.064a6.03 6.03 0 0 0 .301-.726s-.52.121-1.344-.856c-.6-.711-.634-2.054-.549-2.932-.156.52-.398 2.688.427 3.666.539.639.946.807 1.165.848Z" fill-rule="evenodd" style="--darkreader-inline-fill:#a2a1a0" transform="translate(-634.242 -347.57)" data-name="Path 80"/><path d="M833.275 478.311c.054.602.074 1.207.06 1.81.016-.095.037-.19.063-.282.156-.52 0-2.26 0-2.26s.031-1.223-.214-1.62-.756-2.658-.756-2.658 0-.764-.428-1.16c-.428-.397-.703-1.956-.703-1.956a2.01 2.01 0 0 1-.312-1.314c.092-.764-.519-1.588-.519-1.588l-1.038-3.299-.978-2.474-.551 1.437s0 .181-.019.468l.447-1.166.977 2.47 1.04 3.298s.61.825.518 1.588c-.05.461.06.925.312 1.314 0 0 .275 1.562.703 1.955.428.394.426 1.16.426 1.16s.52 2.261.764 2.656.208 1.621.208 1.621Z" fill-rule="evenodd" style="--darkreader-inline-fill:#a2a1a0" transform="translate(-605.942 -244.593)" data-name="Path 81"/></g><path d="m862.623 193.737-.23 1.115.014.496.01.366-1.275.131-.142-.264c-.264-.478-.812-1.45-.989-1.6-.236-.196-.656-3.298-.156-3.114.308.12.56.348.71.642 0 0 2.51.288 2.058 2.228Z" fill="#ffcdd3" fill-rule="evenodd" style="--darkreader-inline-fill:#947f81" transform="translate(-632.725 -16.215)" data-name="Path 82"/><path d="m869.867 219.16-1.275.13-.142-.263c.353-.403.942-.5 1.406-.232l.01.364Z" fill-rule="evenodd" style="--darkreader-inline-fill:#a2a1a0" transform="translate(-640.175 -39.66)" data-name="Path 83"/><path d="m869.792 220.39-1.68.388-.037-.25-.095-.673s.665-.887 1.628-.222l.084.342.1.414Z" fill="#4956ff" fill-rule="evenodd" style="--darkreader-inline-fill:#52637e" transform="translate(-639.779 -40.286)" data-name="Path 84"/><path d="m683.403 181.097-1.794.962-.156-.337c-.17-.358-.425-.897-.495-1.093-.107-.297-.855-.672-.855-.672-1.874-1.795.36-3.338.36-3.338 1.183-2.382 2.498.81 2.498.81s.185 1.681.055 1.794c-.13.112-.13.573-.13.573a7.05 7.05 0 0 1 .517 1.301Z" fill="#ffcdd3" fill-rule="evenodd" style="--darkreader-inline-fill:#947f81" transform="translate(-480.614 -3.454)" data-name="Path 85"/><path d="m694.74 208.528-1.794.962-.156-.337c.253-.213 1.151-.937 1.446-.908.141.018.284.021.425.011l.08.272Z" fill-rule="evenodd" style="--darkreader-inline-fill:#a2a1a0" transform="translate(-491.952 -30.885)" data-name="Path 86"/><path d="m695.185 209.735-2.016.994-.04-.433-.029-.3s1.168-1.001 1.514-.962c.174.025.351.025.526 0l.023.362.022.34Z" fill="#4956ff" fill-rule="evenodd" style="--darkreader-inline-fill:#52637e" transform="translate(-492.213 -31.55)" data-name="Path 87"/><path d="M807.832 219.9s-8.79.993-7.148.458c1.144-.373 1.598-1.093 1.693-1.905.079-.676-.096-1.406-.326-2.03a8.848 8.848 0 0 0-.781-1.59s6.716-3.695 5.375-.335a5.413 5.413 0 0 0-.382 1.592c-.04.543.019 1.09.174 1.612a4.799 4.799 0 0 0 1.395 2.199Z" fill="#ffcdd3" fill-rule="evenodd" style="--darkreader-inline-fill:#947f81" transform="translate(-582.821 -34.971)" data-name="Path 88"/><path d="M810.91 214.468a5.415 5.415 0 0 0-.381 1.592c-.633.532-1.326.496-2.218.496-.684 0-1.443.166-1.99-.164a8.847 8.847 0 0 0-.781-1.588s6.715-3.696 5.37-.336Z" fill-rule="evenodd" style="--darkreader-inline-fill:#a2a1a0" transform="translate(-587.091 -34.946)" data-name="Path 89"/><path d="M0 3.535a3.635 3.635 0 1 1 0 .1z" fill="#ffcdd3" fill-rule="evenodd" style="--darkreader-inline-fill:#947f81" transform="translate(217.466 174.575)" data-name="Ellipse 12"/><path d="M807.832 242.755s-8.79.992-7.148.457c1.144-.373 1.598-1.093 1.693-1.905.438-.469 1.317-.817 1.875-.998a2.63 2.63 0 0 1 1.593-.027c.205.062.4.153.58.269a4.8 4.8 0 0 0 1.407 2.204Z" fill-rule="evenodd" style="--darkreader-inline-fill:#a2a1a0" transform="translate(-582.821 -57.825)" data-name="Path 90"/><path d="m870.307 223.255-1.681.389-.036-.25a1.487 1.487 0 0 1 1.617-.553l.1.414Z" fill-rule="evenodd" style="--darkreader-inline-fill:#a2a1a0" transform="translate(-640.293 -43.152)" data-name="Path 91"/><path d="m695.337 211.69-2.016.994-.041-.433a14.707 14.707 0 0 1 2.03-.901l.027.34Z" fill-rule="evenodd" style="--darkreader-inline-fill:#a2a1a0" transform="translate(-492.365 -33.505)" data-name="Path 92"/><path d="M797.065 387.93c-3.406.544-8.248 1.237-9.017 1.003-.638-.194-2.675-.173-4.448-.113.016-.887.031-1.476.031-1.476l13.195-1.374s-.012.61.24 1.96Z" fill-rule="evenodd" style="--darkreader-inline-fill:#a2a1a0" transform="translate(-568.578 -180.851)" data-name="Path 93"/><path d="M721.391 240.434s-11.21 1.925-12.412 1.562c-1.203-.362-7.38.03-7.38.03-2.78 1.863-1.62-.886-1.62-.886s-.244-1.435.092-2.596c.226-.852.38-1.72.46-2.599 0 0-.06-1.833.276-2.261.335-.428.734-3.482.734-3.482s.304-2.077.275-2.535c-.03-.457.09-1.741.09-1.741l.399-2.139c-2.292-.304-9.256-4.58-9.256-4.58-.336-1.436-2.932-4.796-2.932-4.796a3.533 3.533 0 0 0-.214-.824c-.183-.49 2.566-1.467 2.566-1.467s2.046 2.5 2.474 3.177c.428.678 1.893 1.924 1.893 1.924.228-.023.458.007.672.088l.036.01c.49.193.951.456 1.366.782a2.655 2.655 0 0 1 1.864.702s1.25-.184 1.466.03c.218.214 1.283 0 1.283 0s1.068-2.26 1.771-1.604c.703.656 3.685.625 3.685.625.396-.528 1.363-.906 1.968-1.094a2.642 2.642 0 0 1 1.593-.026c.225.067.436.173.624.312l1.814 1.771s.518-.673.457-.824c-.06-.152.611-.275.611-.275s.886-.275 1.222-.367c.335-.092.643.272.671.304-.01-.039-.24-.78-.156-1.343.084-.562-.367-1.093-.367-1.093 1.068-2.627 3.482-.428 3.482-.428s.274 1.435.03 1.985c-.243.55.244 1.71.184 2.016-.061.307.123.825.123 1.406s-.313 1.68-.489 2.168c-.176.489-1.65 1.589-1.65 1.589s-.092 1.741-.734 2.749c-.641 1.007-.238 4.453-.238 4.453s.61 2.688 1.374 3.544c.764.856 1.893 5.733 1.893 5.733Z" fill="#3f3d56" fill-rule="evenodd" style="--darkreader-inline-fill:#807e7c" transform="translate(-489.508 -34.155)" data-name="Path 94"/><path d="M778.678 254.636s-.336-1.007-.642-1.093a7.063 7.063 0 0 1-.886-.397l.197-.376s1.146.312 1.33.651c.185.34 0 1.215 0 1.215Z" fill-rule="evenodd" style="--darkreader-inline-fill:#a2a1a0" transform="translate(-563.135 -68.456)" data-name="Path 95"/><path d="M732.6 246.138c-.06.313-2.78.58-2.78.58l1.374-1.378.035.012c.493.194.955.459 1.371.786Z" fill-rule="evenodd" style="--darkreader-inline-fill:#a2a1a0" transform="translate(-523.198 -62.186)" data-name="Path 96"/><path d="M0 .144a.244.244 0 1 1 0 .1z" fill="#575988" fill-rule="evenodd" style="--darkreader-inline-fill:#6e6c69" transform="translate(201.293 179.516)" data-name="Ellipse 13"/><path d="M0 .144a.244.244 0 1 1 0 .1z" fill="#575988" fill-rule="evenodd" style="--darkreader-inline-fill:#6e6c69" transform="translate(201.605 180.005)" data-name="Ellipse 14"/><path d="M0 .144a.244.244 0 1 1 0 .1z" fill="#575988" fill-rule="evenodd" style="--darkreader-inline-fill:#6e6c69" transform="translate(201.911 180.456)" data-name="Ellipse 15"/><path d="M0 .144a.244.244 0 1 1 0 .1z" fill="#575988" fill-rule="evenodd" style="--darkreader-inline-fill:#6e6c69" transform="translate(202.231 180.943)" data-name="Ellipse 16"/><path d="M0 .098a.198.198 0 1 1 0 .1z" fill="#575988" fill-rule="evenodd" style="--darkreader-inline-fill:#6e6c69" transform="translate(231.07 180.962)" data-name="Ellipse 17"/><path d="M0 .098a.198.198 0 1 1 0 .1z" fill="#575988" fill-rule="evenodd" style="--darkreader-inline-fill:#6e6c69" transform="translate(231.1 181.414)" data-name="Ellipse 18"/><path d="M0 .098a.198.198 0 1 1 0 .1z" fill="#575988" fill-rule="evenodd" style="--darkreader-inline-fill:#6e6c69" transform="translate(231.127 181.863)" data-name="Ellipse 19"/><path d="M787 317.72c-.03-.037 6.856 8.659 12.201 3.634.005.002-8.44 1.146-12.202-3.635Z" fill-rule="evenodd" style="--darkreader-inline-fill:#a2a1a0" transform="translate(-571.446 -123.26)" data-name="Path 97"/><path d="M761.7 346.66s4.12.112 4.551 1.298v1.234a.79.79 0 0 1-.767 0c-.415-.225-2.906-1.49-3.784-.881v-1.651Z" fill-rule="evenodd" style="--darkreader-inline-fill:#a2a1a0" transform="translate(-550.099 -147.681)" data-name="Path 98"/><path d="M762.19 346.66s3.94.108 4.353 1.239v1.174a.756.756 0 0 1-.734 0c-.397-.212-2.779-1.42-3.619-.839v-1.574Z" fill="#3f3d56" fill-rule="evenodd" style="--darkreader-inline-fill:#807e7c" transform="translate(-550.512 -147.681)" data-name="Path 99"/><path d="M776.1 289.38c.421.974.957 1.895 1.598 2.741.696.936 1.54 1.752 2.499 2.416 0 0-4.028-4.592-4.097-5.157Z" fill-rule="evenodd" style="--darkreader-inline-fill:#a2a1a0" transform="translate(-562.25 -99.348)" data-name="Path 100"/><path d="M767.47 258.73s.687 2.968 2.458 3.975l-2.458-3.975Z" fill-rule="evenodd" style="--darkreader-inline-fill:#a2a1a0" transform="translate(-554.967 -73.485)" data-name="Path 101"/><path d="M760.388 260.645c-.017-.055-.61 2.343 2.284 3.675 0 0-1.23-.417-2.284-3.675Z" fill-rule="evenodd" style="--darkreader-inline-fill:#a2a1a0" transform="translate(-548.94 -75.1)" data-name="Path 102"/><path d="M875.904 247.9c-.045 0 1.428.937 1.83 1.374 0 0-.96-1.437-1.83-1.375Z" fill-rule="evenodd" style="--darkreader-inline-fill:#a2a1a0" transform="translate(-646.464 -64.344)" data-name="Path 103"/><path d="M799.9 190.46a.573.573 0 0 0 .625.568c1.107.068 2.261.117 3.28-.313a1.25 1.25 0 0 0 .5-.33c.18-.224.217-.527.29-.805.144-.544.45-1.026.67-1.543a5.17 5.17 0 0 0 .36-2.773 1.874 1.874 0 0 0-.277-.81c-.294-.42-.83-.59-1.218-.925-.39-.334-.64-.845-1.094-1.093-.409-.228-.91-.2-1.371-.122a7.2 7.2 0 0 0-2.559.96c-.264.157-.552.349-.856.29-.265-.05-.459-.272-.624-.482a3.383 3.383 0 0 0-.261 1.586c.011.08.009.16-.008.239a.72.72 0 0 1-.17.251c-.273.312-.444.82-.174 1.142.118.139.299.215.413.358.204.254.136.624.131.95a.489.489 0 0 0 .081.32c.12.113.29.154.448.109a1.22 1.22 0 0 1 .478-.046c.17.055.316.165.416.313.504.657.704 1.373.92 2.157Z" fill="#2d293d" fill-rule="evenodd" style="--darkreader-inline-fill:#8a8987" transform="translate(-579.781 -8.957)" data-name="Path 104"/><g data-name="Group 25"><path d="M804.434 206.514a1.25 1.25 0 0 1-.5.33c-1.024.427-2.177.379-3.28.313a.769.769 0 0 1-.342-.076c-.168-.099-.232-.305-.284-.492-.215-.781-.414-1.498-.926-2.15a.803.803 0 0 0-.416-.32 1.28 1.28 0 0 0-.478.046.469.469 0 0 1-.448-.107.489.489 0 0 1-.081-.321c0-.328.073-.695-.131-.95-.114-.142-.295-.219-.413-.36a.712.712 0 0 1-.07-.727c-.195.312-.278.704-.051.973.117.14.298.216.412.358.204.256.136.624.131.95a.486.486 0 0 0 .08.321c.12.113.291.154.45.108a1.22 1.22 0 0 1 .478-.045c.169.055.315.165.415.312.51.651.71 1.367.926 2.15.026.194.122.37.27.496a.758.758 0 0 0 .344.075c1.108.069 2.262.119 3.28-.313.191-.067.363-.181.5-.33a.956.956 0 0 0 .156-.294c.002.02-.01.037-.022.053Z" fill-rule="evenodd" style="--darkreader-inline-fill:#a2a1a0" transform="translate(-579.782 -25.363)" data-name="Path 105"/><path d="M799.945 189.092a.536.536 0 0 0 .11-.184.683.683 0 0 0 0-.24c-.03-.445.028-.892.17-1.315l-.02-.023a3.358 3.358 0 0 0-.26 1.584c.004.06.004.119 0 .178Z" fill-rule="evenodd" style="--darkreader-inline-fill:#a2a1a0" transform="translate(-582.361 -13.237)" data-name="Path 106"/></g><path d="M812.08 248.45s4.54.603 4.948-.08" fill-rule="evenodd" style="--darkreader-inline-fill:#a2a1a0" transform="translate(-592.61 -64.743)" data-name="Path 107"/><path d="M868.59 236.85s2.524 0 3.079.95" fill-rule="evenodd" style="--darkreader-inline-fill:#a2a1a0" transform="translate(-640.293 -55.023)" data-name="Path 108"/><path d="M940.968 765.194a4.003 4.003 0 0 1-2.726 1.019c-.256 0-.61.048-.612.304a.428.428 0 0 0 .075.21c.317.528.817.92 1.406 1.104.546.165 1.13.137 1.7.108l1.664-.086c.312-.018.625-.033.937-.072.313-.04.653-.103.98-.156a12.796 12.796 0 0 1 2.422-.113c.216.008.469 0 .597-.156s.062-.455.014-.689c-.1-.482 0-.989-.092-1.473-.157-.85-.892-1.5-1.698-1.808-.75-.285-2.078-.611-2.787-.136-.748.498-1.205 1.33-1.88 1.944Z" fill="#3f3d56" fill-rule="evenodd" style="--darkreader-inline-fill:#807e7c" transform="translate(-698.55 -499)" data-name="Path 109"/><path d="M951.535 576.005c.147.699.824 1.233.842 1.945.017.572-.39 1.051-.684 1.54-.277.506-.51 1.035-.698 1.58a24.14 24.14 0 0 1-2.05 4.077c-.39.625-.827 1.292-.738 2.018.062.34.182.666.354.966l1.172 2.327c.257.464.457.958.598 1.47.102.442.111.9.17 1.35.185 1.427.855 2.864.458 4.248-.034.118-.156.262-.251.18.387.722.698 1.45.668 2.27-.016.43-.147.878.011 1.278.067.167.184.323.183.503 0 .118-.055.23-.067.345-.033.33.27.604.584.709.314.105.656.097.973.192.609.183 1.045.708 1.562 1.072.53.365 1.155.568 1.8.585a.452.452 0 0 0 .265-.053.429.429 0 0 0 .146-.322 1.786 1.786 0 0 0-.643-1.552.704.704 0 0 1-.24-.25.605.605 0 0 1-.02-.28c.093-1.28.07-2.566-.07-3.842a5.834 5.834 0 0 1-.06-1.223c.032-.34.135-.678.098-1.017-.038-.339-.211-.648-.313-.974-.18-.581-.13-1.206-.156-1.814-.031-1.056-.273-2.093-.514-3.124-.095-.404-.2-.827-.485-1.127-.244-.255-.638-.498-.545-.837a.991.991 0 0 1 .223-.333c.228-.287.329-.655.278-1.019a.458.458 0 0 0 .526-.246c1.903-.898 3.437-2.695 4.12-4.686.04-.148.103-.289.185-.419.176-.246.483-.353.754-.488.853-.43 1.442-1.234 1.982-2.022.313-.456.625-.927.766-1.465.074-.347.109-.702.104-1.057l.049-1.835a.99.99 0 0 0-.035-.36.9.9 0 0 0-.198-.29 3.529 3.529 0 0 0-1.946-1.05c-.5-.089-1.01-.072-1.517-.114-.98-.081-1.949-.385-2.93-.312-1.542.114-2.914 1.182-3.64 2.547-.255.481-.524.9-1.07.91Z" fill="#464353" fill-rule="evenodd" style="--darkreader-inline-fill:#292a2b" transform="translate(-707.465 -338.279)" data-name="Path 110"/><path d="M905.577 496.444c.021.284-.017.568-.112.836-.12.256-.422.456-.686.352.08-.18-.131-.385-.328-.363a.614.614 0 0 0-.433.372c-.13.262-.174.56-.124.848.062.36.27.704.215 1.065-.044.3-.264.598-.147.876.076.127.172.242.283.34a.956.956 0 0 1-.102 1.311l2.956.06c-.108.493.114.998.367 1.437a9.059 9.059 0 0 0 6.753 4.409.587.587 0 0 0-.142.898c.24.24.648.21.95.055.301-.155.537-.411.812-.61a2.499 2.499 0 0 1 1.67-.45c.37.037.73.157 1.1.176 1.094.057 2.031-.73 3.084-1.051.767-.236 1.637-.236 2.28-.716.279-.206.507-.545.425-.88a1.47 1.47 0 0 0-.312-.516c-.37-.48-.589-1.056-.854-1.601a9.578 9.578 0 0 0-2.136-2.862 19.098 19.098 0 0 0-2.117-1.605 3.615 3.615 0 0 0-.572-.345c-.26-.114-.547-.17-.781-.313-.347-.218-.547-.604-.814-.915-.586-.684-1.485-.998-2.207-1.535-.484-.361-.912-.836-1.49-1.01-.281-.085-.58-.092-.86-.176-.64-.194-1.105-.76-1.731-.99-.495-.181-1.042-.134-1.562-.199a3.657 3.657 0 0 1-1.632-.621 1.937 1.937 0 0 0-.52-.303c-.792-.24-.856 1.234-.938 1.744-.104.76-.295 1.514-.295 2.282Z" fill="#773aed" fill-rule="evenodd" style="--darkreader-inline-fill:#4a3c65" transform="translate(-670.066 -270.65)" data-name="Path 111"/><path d="M860.584 536.995c.133 1.44-.955 2.835-.637 4.246.067.3.196.585.243.89.133.836-.367 1.627-.843 2.327l-4.092 6.006c-.165.263-.361.506-.585.721-.78.695-1.955.625-2.983.831a5.156 5.156 0 0 0-2 .884.13.13 0 0 0-.024.18c.345.47.904.732 1.485.698.108.14 0 .35-.148.452-.219.156-.522.192-.566.565-.014.13.012.26.075.375.166.252.422.43.716.497 1.416.434 2.947-.328 4.008-1.364 1.06-1.036 1.82-2.343 2.861-3.396.576-.584 1.23-1.082 1.824-1.647 1.184-1.13 2.106-2.5 2.993-3.872.267-.414.537-.84.648-1.319.111-.48.06-.965.186-1.429.166-.607.61-1.093.981-1.602.726-1 1.212-2.223 1.115-3.455-.097-1.233-.859-2.448-2.02-2.866a1.817 1.817 0 0 0-1.133-.07c-.477.148-.828.541-1.153.92l-.781.896c-.19.198-.34.432-.439.689a.72.72 0 0 0 .156.765" fill="#fbbebe" fill-rule="evenodd" style="--darkreader-inline-fill:#8f7979" transform="translate(-624.301 -306.257)" data-name="Path 112"/><path d="M918.705 511.897c-.537.031-1.13.085-1.509.469-.159.176-.288.378-.38.596-.37.752-.729 1.537-.755 2.375-.022.668.172 1.322.273 1.983.084.55-.13 1.11-.17 1.667.667-.205 1.548-.483 2.152-.828.413-.236.81-.505 1.26-.655.643-.214 1.719.157 2.33.453.032-.428-.29-1.174-.255-1.604.005-.18.037-.36.095-.53.091-.182.2-.354.323-.515.477-.775.401-1.77-.189-2.463-.542-.609-1.39-.837-2.199-.937a9.511 9.511 0 0 0-1.535-.053" fill="#773aed" fill-rule="evenodd" style="--darkreader-inline-fill:#4a3c65" transform="translate(-680.348 -287.066)" data-name="Path 113"/></g><defs><linearGradient x1=".5" y1="1" x2=".5" y2="0" id="a"><stop stop-color="rgba(128,128,128,0.25 )" offset="0" style="--darkreader-inline-stopcolor:rgba(70, 72, 73, 0.25)"/><stop stop-color="rgba(128,128,128,0.12 )" offset=".54" style="--darkreader-inline-stopcolor:rgba(70, 72, 73, 0.12)"/><stop stop-color="rgba(128,128,128,0.1 )" offset="1" style="--darkreader-inline-stopcolor:rgba(70, 72, 73, 0.1)"/></linearGradient></defs></svg>