<?xml version="1.0" encoding="UTF-8"?>
<svg version="1.1" xmlns="http://www.w3.org/2000/svg" width="222" height="227">
<path d="M0 0 C4.26485103 0.01915242 8.52965996 0.0231078 12.79454803 0.02687836 C30.75061638 0.04394568 48.71491824 0.07288077 66.66473389 0.59240723 C67.66909485 0.61389832 68.67345581 0.6353894 69.70825195 0.65753174 C79.16139184 1.00522545 89.90575564 2.15764464 96.84442139 9.20959473 C105.17858766 19.82709423 106.0736616 30.55132245 106.0914917 43.68029785 C106.0964566 44.57423752 106.10142151 45.46817719 106.10653687 46.38920593 C106.12102062 49.31632279 106.12793524 52.24338558 106.13348389 55.17053223 C106.13772495 56.68034416 106.13772495 56.68034416 106.1420517 58.22065735 C106.15698387 63.54135394 106.16625257 68.86202381 106.17059326 74.18273926 C106.17608674 79.66004338 106.20015046 85.13710006 106.22856522 90.61432648 C106.24723285 94.84552724 106.25239927 99.07666865 106.25392914 103.3079071 C106.25694397 105.32681133 106.26493269 107.3457148 106.27811432 109.36457825 C106.29527069 112.19266443 106.29327189 115.02014874 106.2868042 117.8482666 C106.29601898 118.6713884 106.30523376 119.49451019 106.31472778 120.34257507 C106.24975675 129.464191 103.55577487 137.37605852 97.21160889 144.08068848 C89.1547423 151.7379089 79.87919973 152.84141522 69.10858154 153.92687988 C67.26988967 154.11637679 67.26988967 154.11637679 65.39405251 154.30970192 C52.2861645 155.56387014 39.23605713 155.70040936 26.07879639 155.66271973 C23.51309121 155.66475069 20.9473866 155.6676705 18.38168335 155.67141724 C13.05572369 155.67579104 7.72992183 155.66987269 2.4039917 155.65539551 C-3.67190461 155.63906594 -9.74749865 155.64438885 -15.82338774 155.66087472 C-21.77676709 155.67635447 -27.73005617 155.67443183 -33.68345261 155.66572952 C-36.16835958 155.66376148 -38.65327455 155.66606364 -41.13817215 155.67316818 C-53.87584504 155.70162209 -66.43960604 155.35114026 -79.10626221 153.92687988 C-80.66880706 153.75263268 -80.66880706 153.75263268 -82.26291847 153.57486534 C-98.62245394 151.53795887 -98.62245394 151.53795887 -105.00714111 147.32678223 C-121.64107809 122.6279061 -113.97520016 73.02458012 -112.19464111 44.38928223 C-112.11625 43.10223389 -112.03785889 41.81518555 -111.95709229 40.48913574 C-110.71623305 22.68048577 -110.71623305 22.68048577 -106.75714111 14.82678223 C-106.3691333 14.02369629 -105.98112549 13.22061035 -105.58135986 12.39318848 C-101.16674298 6.17622155 -92.12394004 4.73584205 -85.06964111 3.26428223 C-79.34089873 2.32505695 -73.55962719 1.92696177 -67.77276611 1.52990723 C-66.94783913 1.46935402 -66.12291214 1.40880081 -65.27298737 1.34641266 C-43.53628666 -0.22332983 -21.78046357 -0.11666382 0 0 Z M-30.06964111 43.26428223 C-31.14281965 46.48381785 -31.19652796 48.8034533 -31.19903564 52.18859863 C-31.20218781 53.40641022 -31.20533997 54.6242218 -31.20858765 55.87893677 C-31.20656342 57.19461639 -31.20453918 58.51029602 -31.20245361 59.86584473 C-31.20312714 61.22679664 -31.20409757 62.58774845 -31.20535278 63.94869995 C-31.20682646 66.79837186 -31.20468513 69.6480124 -31.20001221 72.49768066 C-31.19430426 76.15759579 -31.19760272 79.81743777 -31.20358467 83.47735023 C-31.20718996 86.28594519 -31.20605204 89.09452266 -31.20345688 91.90311813 C-31.20246208 93.91125282 -31.20550752 95.91938818 -31.20858765 97.92752075 C-31.20543549 99.13902802 -31.20228333 100.35053528 -31.19903564 101.59875488 C-31.19824005 102.6711441 -31.19744446 103.74353333 -31.19662476 104.84841919 C-31.34237433 107.21455434 -31.34237433 107.21455434 -30.06964111 108.26428223 C-25.08546926 107.84858239 -21.22486354 106.66995808 -16.74542236 104.49084473 C-15.56117676 103.91850098 -14.37693115 103.34615723 -13.15679932 102.75646973 C-11.8982624 102.13471618 -10.64004927 101.51230686 -9.38214111 100.88928223 C-8.08300581 100.25366169 -6.78376988 99.6182468 -5.48443604 98.98303223 C8.65263759 92.03586282 22.55920322 84.6036609 35.93035889 76.26428223 C35.20584444 72.98806104 35.20584444 72.98806104 31.97210693 71.54650879 C30.65427297 70.90625989 29.33132025 70.2764851 28.00457764 69.65490723 C26.53457588 68.94422385 25.0650288 68.23259941 23.59588623 67.5201416 C22.44343414 66.96604614 22.44343414 66.96604614 21.2677002 66.40075684 C17.46619262 64.55236746 13.71103934 62.61494125 9.94989014 60.68615723 C7.65298463 59.51907992 5.35486617 58.35441834 3.05657959 57.19006348 C1.50693404 56.40256818 -0.04090889 55.6115161 -1.5869751 54.8170166 C-10.9175312 50.02678887 -19.86250874 45.87590566 -30.06964111 43.26428223 Z " fill="#FEFEFE" transform="translate(114.06964111328125,35.7357177734375)"/>
</svg>
